<svg width="513" height="285" viewBox="0 0 513 285" fill="none" xmlns="http://www.w3.org/2000/svg">
<path d="M470.774 284.508H511.751L511.765 284.494C504.385 282.331 498.945 275.579 498.918 267.467C498.891 259.207 504.48 252.306 512.054 250.224V248.859C504.466 246.831 498.831 239.963 498.804 231.703C498.777 223.443 504.358 216.542 511.94 214.46L511.933 213.088C504.345 211.06 498.716 204.193 498.682 195.94C498.655 187.68 504.244 180.778 511.819 178.696L511.812 177.324C504.224 175.296 498.588 168.436 498.561 160.176C498.534 151.916 504.123 145.014 511.697 142.932L511.691 141.56C504.103 139.532 498.467 132.672 498.44 124.412C498.413 116.152 503.995 109.251 511.576 107.169L511.569 105.797C503.981 103.769 498.346 96.9012 498.319 88.648C498.292 80.3881 503.88 73.4866 511.455 71.4047V70.0325C503.867 68.0047 498.231 61.144 498.204 52.884C498.178 44.6241 503.766 37.7228 511.341 35.6409L511.334 34.2687C503.746 32.2409 498.117 25.3802 498.09 17.1202C498.063 9.93502 502.291 3.77035 508.365 0.904367C508.318 0.843532 508.264 0.78945 508.217 0.728616H470.787L470.787 284.508H470.774Z" fill="#C77000"/>
<path d="M41.2736 284.508H0.296296L0.289516 284.494C7.66892 282.331 13.1094 275.579 13.1363 267.467C13.1632 259.207 7.57467 252.306 0 250.224L0 248.859C7.58813 246.831 13.2238 239.963 13.2507 231.703C13.2777 223.443 7.69585 216.542 0.11445 214.46L0.121231 213.088C7.70936 211.06 13.3383 204.193 13.372 195.94C13.3989 187.68 7.81035 180.778 0.235681 178.696L0.242462 177.324C7.8306 175.296 13.4661 168.436 13.493 160.176C13.5199 151.916 7.93158 145.014 0.356912 142.932L0.363693 141.56C7.95183 139.532 13.5873 132.672 13.6142 124.412C13.6412 116.152 8.05954 109.251 0.478143 107.169L0.484923 105.797C8.07306 103.769 13.7085 96.9012 13.7355 88.648C13.7624 80.3881 8.17404 73.4866 0.599374 71.4047L0.605949 70.0325C8.19408 68.0047 13.8298 61.144 13.8567 52.884C13.8836 44.6241 8.29527 37.7228 0.720604 35.6409L0.72718 34.2687C8.31531 32.2409 13.9442 25.3802 13.9711 17.1202C13.9981 9.93502 9.76971 3.77035 3.69651 0.904367C3.74364 0.843532 3.79753 0.78945 3.84466 0.728616H41.2736L41.2736 284.508Z" fill="#C77000"/>
<path d="M482.55 0.734772L34.0484 0.734772L34.0484 284.5L482.55 284.5L482.55 0.734772Z" fill="#36D6B6"/>
<path d="M252.364 0.738098L34.0449 0.738098L34.0449 284.504L252.364 284.504L252.364 0.738098Z" fill="#2CB096"/>
<path d="M435.682 0.740112L375.415 0.740112L375.415 284.506H435.682L435.682 0.740112Z" fill="#2CB096"/>
<path d="M470.77 0.738739L464.885 0.738739L464.885 284.505H470.77L470.77 0.738739Z" fill="#C77000"/>
<path d="M96.7673 140.722L96.7673 215.447L171.201 215.447V140.722H96.7673Z" fill="#784300"/>
<path d="M171.201 215.447L152.84 196.683L158.146 153.835L171.201 140.722V215.447Z" fill="#945300"/>
<path d="M96.7673 215.447L115.135 196.683L109.829 153.835L96.7673 140.722L96.7673 215.447Z" fill="#945300"/>
<path d="M109.829 153.835L109.829 202.341H158.146V153.835H109.829Z" fill="#D97A00"/>
<path d="M96.7673 65.9973L96.7673 140.722L171.201 140.722V65.9973L96.7673 65.9973Z" fill="#784300"/>
<path d="M171.201 140.722L152.84 121.958L158.146 79.1105L171.201 65.9973V140.722Z" fill="#945300"/>
<path d="M96.7673 140.722L115.135 121.958L109.829 79.1105L96.7673 65.9973L96.7673 140.722Z" fill="#945300"/>
<path d="M109.829 79.1106L109.829 127.616L158.146 127.616V79.1106H109.829Z" fill="#D97A00"/>
<path d="M171.201 140.722L171.201 215.447L245.635 215.447V140.722H171.201Z" fill="#784300"/>
<path d="M245.635 215.447L227.274 196.683L232.579 153.835L245.635 140.722V215.447Z" fill="#945300"/>
<path d="M171.201 215.447L189.569 196.683L184.263 153.835L171.201 140.722L171.201 215.447Z" fill="#945300"/>
<path d="M184.263 153.835V202.341H232.579V153.835H184.263Z" fill="#D97A00"/>
<path d="M171.201 65.9973L171.201 140.722L245.635 140.722V65.9973L171.201 65.9973Z" fill="#784300"/>
<path d="M245.635 140.722L227.274 121.958L232.579 79.1105L245.635 65.9973V140.722Z" fill="#945300"/>
<path d="M171.201 140.722L189.569 121.958L184.263 79.1105L171.201 65.9973L171.201 140.722Z" fill="#945300"/>
<path d="M184.263 79.1106V127.616L232.579 127.616V79.1106H184.263Z" fill="#D97A00"/>
<path d="M245.635 140.722L245.635 215.447L320.069 215.447V140.722H245.635Z" fill="#784300"/>
<path d="M320.069 215.447L301.707 196.683L307.013 153.835L320.069 140.722V215.447Z" fill="#945300"/>
<path d="M245.635 215.447L264.003 196.683L258.697 153.835L245.635 140.722L245.635 215.447Z" fill="#945300"/>
<path d="M258.697 153.836V202.341H307.013V153.836H258.697Z" fill="#D97A00"/>
<path d="M245.635 65.9972L245.635 140.722L320.069 140.722V65.9972L245.635 65.9972Z" fill="#784300"/>
<path d="M320.068 140.722L301.707 121.958L307.013 79.1104L320.068 65.9971V140.722Z" fill="#945300"/>
<path d="M245.635 140.722L264.003 121.958L258.697 79.1104L245.635 65.9972L245.635 140.722Z" fill="#945300"/>
<path d="M258.697 79.1104V127.616L307.013 127.616V79.1104H258.697Z" fill="#D97A00"/>
<path d="M355.962 69.4448L355.962 211.98H411.045V69.4448H355.962Z" fill="white"/>
<path d="M396.785 31.6124V120.228H370.223V31.6124L383.5 45.4556L396.785 31.6124Z" fill="white"/>
<path opacity="0.15" d="M370.223 65.4972V69.4448H396.785V65.4972H370.223Z" fill="black"/>
<path d="M396.785 249.839V161.217H370.223V249.839L383.5 235.996L396.785 249.839Z" fill="white"/>
<path opacity="0.15" d="M396.78 215.947V212H370.218V215.947H396.78Z" fill="black"/>
<path d="M378.781 94.3463V187.071C378.781 188.937 377.273 190.451 375.414 190.451C373.556 190.451 372.048 188.937 372.048 187.071V94.3463C372.048 92.4807 373.556 90.9666 375.414 90.9666C377.273 90.9666 378.781 92.4807 378.781 94.3463Z" fill="#C77000"/>
<path d="M397.95 114.3V167.125C397.95 168.99 396.441 170.504 394.583 170.504C392.725 170.504 391.216 168.99 391.216 167.125V114.3C391.216 112.434 392.725 110.92 394.583 110.92C396.441 110.92 397.95 112.428 397.95 114.3Z" fill="#C77000"/>
<path d="M470.774 284.508H511.751L511.765 284.494C504.385 282.331 498.945 275.579 498.918 267.467C498.891 259.207 504.48 252.306 512.054 250.224V248.859C504.466 246.831 498.831 239.963 498.804 231.703C498.777 223.443 504.358 216.542 511.94 214.46L511.933 213.088C504.345 211.06 498.716 204.193 498.682 195.94C498.655 187.68 504.244 180.778 511.819 178.696L511.812 177.324C504.224 175.296 498.588 168.436 498.561 160.176C498.534 151.916 504.123 145.014 511.697 142.932L511.691 141.56C504.103 139.532 498.467 132.672 498.44 124.412C498.413 116.152 503.995 109.251 511.576 107.169L511.569 105.797C503.981 103.769 498.346 96.9012 498.319 88.648C498.292 80.3881 503.88 73.4866 511.455 71.4047V70.0325C503.867 68.0047 498.231 61.144 498.204 52.884C498.178 44.6241 503.766 37.7228 511.341 35.6409L511.334 34.2687C503.746 32.2409 498.117 25.3802 498.09 17.1202C498.063 9.93502 502.291 3.77035 508.365 0.904367C508.318 0.843532 508.264 0.78945 508.217 0.728616H470.787L470.787 284.508H470.774Z" fill="#C77000"/>
<path d="M41.2736 284.508H0.296296L0.289516 284.494C7.66892 282.331 13.1094 275.579 13.1363 267.467C13.1632 259.207 7.57467 252.306 0 250.224L0 248.859C7.58813 246.831 13.2238 239.963 13.2507 231.703C13.2777 223.443 7.69585 216.542 0.11445 214.46L0.121231 213.088C7.70936 211.06 13.3383 204.193 13.372 195.94C13.3989 187.68 7.81035 180.778 0.235681 178.696L0.242462 177.324C7.8306 175.296 13.4661 168.436 13.493 160.176C13.5199 151.916 7.93158 145.014 0.356912 142.932L0.363693 141.56C7.95183 139.532 13.5873 132.672 13.6142 124.412C13.6412 116.152 8.05954 109.251 0.478143 107.169L0.484923 105.797C8.07306 103.769 13.7085 96.9012 13.7355 88.648C13.7624 80.3881 8.17404 73.4866 0.599374 71.4047L0.605949 70.0325C8.19408 68.0047 13.8298 61.144 13.8567 52.884C13.8836 44.6241 8.29527 37.7228 0.720604 35.6409L0.72718 34.2687C8.31531 32.2409 13.9442 25.3802 13.9711 17.1202C13.9981 9.93502 9.76971 3.77035 3.69651 0.904367C3.74364 0.843532 3.79753 0.78945 3.84466 0.728616H41.2736L41.2736 284.508Z" fill="#C77000"/>
<path d="M482.55 0.734772L34.0484 0.734772L34.0484 284.5L482.55 284.5L482.55 0.734772Z" fill="#36D6B6"/>
<path d="M252.364 0.738098L34.0449 0.738098L34.0449 284.504L252.364 284.504L252.364 0.738098Z" fill="#2CB096"/>
<path d="M435.682 0.740112L375.415 0.740112L375.415 284.506H435.682L435.682 0.740112Z" fill="#2CB096"/>
<path d="M470.77 0.738739L464.885 0.738739L464.885 284.505H470.77L470.77 0.738739Z" fill="#C77000"/>
<path d="M96.7673 140.722L96.7673 215.447L171.201 215.447V140.722H96.7673Z" fill="#784300"/>
<path d="M171.201 215.447L152.84 196.683L158.146 153.835L171.201 140.722V215.447Z" fill="#945300"/>
<path d="M96.7673 215.447L115.135 196.683L109.829 153.835L96.7673 140.722L96.7673 215.447Z" fill="#945300"/>
<path d="M109.829 153.835L109.829 202.341H158.146V153.835H109.829Z" fill="#D97A00"/>
<path d="M96.7673 65.9973L96.7673 140.722L171.201 140.722V65.9973L96.7673 65.9973Z" fill="#784300"/>
<path d="M171.201 140.722L152.84 121.958L158.146 79.1105L171.201 65.9973V140.722Z" fill="#945300"/>
<path d="M96.7673 140.722L115.135 121.958L109.829 79.1105L96.7673 65.9973L96.7673 140.722Z" fill="#945300"/>
<path d="M109.829 79.1106L109.829 127.616L158.146 127.616V79.1106H109.829Z" fill="#D97A00"/>
<path d="M171.201 140.722L171.201 215.447L245.635 215.447V140.722H171.201Z" fill="#784300"/>
<path d="M245.635 215.447L227.274 196.683L232.579 153.835L245.635 140.722V215.447Z" fill="#945300"/>
<path d="M171.201 215.447L189.569 196.683L184.263 153.835L171.201 140.722L171.201 215.447Z" fill="#945300"/>
<path d="M184.263 153.835V202.341H232.579V153.835H184.263Z" fill="#D97A00"/>
<path d="M171.201 65.9973L171.201 140.722L245.635 140.722V65.9973L171.201 65.9973Z" fill="#784300"/>
<path d="M245.635 140.722L227.274 121.958L232.579 79.1105L245.635 65.9973V140.722Z" fill="#945300"/>
<path d="M171.201 140.722L189.569 121.958L184.263 79.1105L171.201 65.9973L171.201 140.722Z" fill="#945300"/>
<path d="M184.263 79.1106V127.616L232.579 127.616V79.1106H184.263Z" fill="#D97A00"/>
<path d="M245.635 140.722L245.635 215.447L320.069 215.447V140.722H245.635Z" fill="#784300"/>
<path d="M320.069 215.447L301.707 196.683L307.013 153.835L320.069 140.722V215.447Z" fill="#945300"/>
<path d="M245.635 215.447L264.003 196.683L258.697 153.835L245.635 140.722L245.635 215.447Z" fill="#945300"/>
<path d="M258.697 153.836V202.341H307.013V153.836H258.697Z" fill="#D97A00"/>
<path d="M245.635 65.9972L245.635 140.722L320.069 140.722V65.9972L245.635 65.9972Z" fill="#784300"/>
<path d="M320.068 140.722L301.707 121.958L307.013 79.1104L320.068 65.9971V140.722Z" fill="#945300"/>
<path d="M245.635 140.722L264.003 121.958L258.697 79.1104L245.635 65.9972L245.635 140.722Z" fill="#945300"/>
<path d="M258.697 79.1104V127.616L307.013 127.616V79.1104H258.697Z" fill="#D97A00"/>
<path d="M355.962 69.4448L355.962 211.98H411.045V69.4448H355.962Z" fill="white"/>
<path d="M396.785 31.6124V120.228H370.223V31.6124L383.5 45.4556L396.785 31.6124Z" fill="white"/>
<path opacity="0.15" d="M370.223 65.4972V69.4448H396.785V65.4972H370.223Z" fill="black"/>
<path d="M396.785 249.839V161.217H370.223V249.839L383.5 235.996L396.785 249.839Z" fill="white"/>
<path opacity="0.15" d="M396.78 215.947V212H370.218V215.947H396.78Z" fill="black"/>
<path d="M378.781 94.3463V187.071C378.781 188.937 377.273 190.451 375.414 190.451C373.556 190.451 372.048 188.937 372.048 187.071V94.3463C372.048 92.4807 373.556 90.9666 375.414 90.9666C377.273 90.9666 378.781 92.4807 378.781 94.3463Z" fill="#C77000"/>
<path d="M397.95 114.3V167.125C397.95 168.99 396.441 170.504 394.583 170.504C392.725 170.504 391.216 168.99 391.216 167.125V114.3C391.216 112.434 392.725 110.92 394.583 110.92C396.441 110.92 397.95 112.428 397.95 114.3Z" fill="#C77000"/>
<path d="M470.774 284.508H511.751L511.765 284.494C504.385 282.331 498.945 275.579 498.918 267.467C498.891 259.207 504.48 252.306 512.054 250.224V248.859C504.466 246.831 498.831 239.963 498.804 231.703C498.777 223.443 504.358 216.542 511.94 214.46L511.933 213.088C504.345 211.06 498.716 204.193 498.682 195.94C498.655 187.68 504.244 180.778 511.819 178.696L511.812 177.324C504.224 175.296 498.588 168.436 498.561 160.176C498.534 151.916 504.123 145.014 511.697 142.932L511.691 141.56C504.103 139.532 498.467 132.672 498.44 124.412C498.413 116.152 503.995 109.251 511.576 107.169L511.569 105.797C503.981 103.769 498.346 96.9012 498.319 88.648C498.292 80.3881 503.88 73.4866 511.455 71.4047V70.0325C503.867 68.0047 498.231 61.144 498.204 52.884C498.178 44.6241 503.766 37.7228 511.341 35.6409L511.334 34.2687C503.746 32.2409 498.117 25.3802 498.09 17.1202C498.063 9.93502 502.291 3.77035 508.365 0.904367C508.318 0.843532 508.264 0.78945 508.217 0.728616H470.787L470.787 284.508H470.774Z" fill="#C77000"/>
<path d="M41.2736 284.508H0.296296L0.289516 284.494C7.66892 282.331 13.1094 275.579 13.1363 267.467C13.1632 259.207 7.57467 252.306 0 250.224L0 248.859C7.58813 246.831 13.2238 239.963 13.2507 231.703C13.2777 223.443 7.69585 216.542 0.11445 214.46L0.121231 213.088C7.70936 211.06 13.3383 204.193 13.372 195.94C13.3989 187.68 7.81035 180.778 0.235681 178.696L0.242462 177.324C7.8306 175.296 13.4661 168.436 13.493 160.176C13.5199 151.916 7.93158 145.014 0.356912 142.932L0.363693 141.56C7.95183 139.532 13.5873 132.672 13.6142 124.412C13.6412 116.152 8.05954 109.251 0.478143 107.169L0.484923 105.797C8.07306 103.769 13.7085 96.9012 13.7355 88.648C13.7624 80.3881 8.17404 73.4866 0.599374 71.4047L0.605949 70.0325C8.19408 68.0047 13.8298 61.144 13.8567 52.884C13.8836 44.6241 8.29527 37.7228 0.720604 35.6409L0.72718 34.2687C8.31531 32.2409 13.9442 25.3802 13.9711 17.1202C13.9981 9.93502 9.76971 3.77035 3.69651 0.904367C3.74364 0.843532 3.79753 0.78945 3.84466 0.728616H41.2736L41.2736 284.508Z" fill="#C77000"/>
<path d="M482.55 0.734772L34.0484 0.734772L34.0484 284.5L482.55 284.5L482.55 0.734772Z" fill="#36D6B6"/>
<path d="M252.364 0.738098L34.0449 0.738098L34.0449 284.504L252.364 284.504L252.364 0.738098Z" fill="#2CB096"/>
<path d="M435.682 0.740112L375.415 0.740112L375.415 284.506H435.682L435.682 0.740112Z" fill="#2CB096"/>
<path d="M470.77 0.738739L464.885 0.738739L464.885 284.505H470.77L470.77 0.738739Z" fill="#C77000"/>
<path d="M96.7673 140.722L96.7673 215.447L171.201 215.447V140.722H96.7673Z" fill="#784300"/>
<path d="M171.201 215.447L152.84 196.683L158.146 153.835L171.201 140.722V215.447Z" fill="#945300"/>
<path d="M96.7673 215.447L115.135 196.683L109.829 153.835L96.7673 140.722L96.7673 215.447Z" fill="#945300"/>
<path d="M109.829 153.835L109.829 202.341H158.146V153.835H109.829Z" fill="#D97A00"/>
<path d="M96.7673 65.9973L96.7673 140.722L171.201 140.722V65.9973L96.7673 65.9973Z" fill="#784300"/>
<path d="M171.201 140.722L152.84 121.958L158.146 79.1105L171.201 65.9973V140.722Z" fill="#945300"/>
<path d="M96.7673 140.722L115.135 121.958L109.829 79.1105L96.7673 65.9973L96.7673 140.722Z" fill="#945300"/>
<path d="M109.829 79.1106L109.829 127.616L158.146 127.616V79.1106H109.829Z" fill="#D97A00"/>
<path d="M171.201 140.722L171.201 215.447L245.635 215.447V140.722H171.201Z" fill="#784300"/>
<path d="M245.635 215.447L227.274 196.683L232.579 153.835L245.635 140.722V215.447Z" fill="#945300"/>
<path d="M171.201 215.447L189.569 196.683L184.263 153.835L171.201 140.722L171.201 215.447Z" fill="#945300"/>
<path d="M184.263 153.835V202.341H232.579V153.835H184.263Z" fill="#D97A00"/>
<path d="M171.201 65.9973L171.201 140.722L245.635 140.722V65.9973L171.201 65.9973Z" fill="#784300"/>
<path d="M245.635 140.722L227.274 121.958L232.579 79.1105L245.635 65.9973V140.722Z" fill="#945300"/>
<path d="M171.201 140.722L189.569 121.958L184.263 79.1105L171.201 65.9973L171.201 140.722Z" fill="#945300"/>
<path d="M184.263 79.1106V127.616L232.579 127.616V79.1106H184.263Z" fill="#D97A00"/>
<path d="M245.635 140.722L245.635 215.447L320.069 215.447V140.722H245.635Z" fill="#784300"/>
<path d="M320.069 215.447L301.707 196.683L307.013 153.835L320.069 140.722V215.447Z" fill="#945300"/>
<path d="M245.635 215.447L264.003 196.683L258.697 153.835L245.635 140.722L245.635 215.447Z" fill="#945300"/>
<path d="M258.697 153.836V202.341H307.013V153.836H258.697Z" fill="#D97A00"/>
<path d="M245.635 65.9972L245.635 140.722L320.069 140.722V65.9972L245.635 65.9972Z" fill="#784300"/>
<path d="M320.068 140.722L301.707 121.958L307.013 79.1104L320.068 65.9971V140.722Z" fill="#945300"/>
<path d="M245.635 140.722L264.003 121.958L258.697 79.1104L245.635 65.9972L245.635 140.722Z" fill="#945300"/>
<path d="M258.697 79.1104V127.616L307.013 127.616V79.1104H258.697Z" fill="#D97A00"/>
<path d="M355.962 69.4448L355.962 211.98H411.045V69.4448H355.962Z" fill="white"/>
<path d="M396.785 31.6124V120.228H370.223V31.6124L383.5 45.4556L396.785 31.6124Z" fill="white"/>
<path opacity="0.15" d="M370.223 65.4972V69.4448H396.785V65.4972H370.223Z" fill="black"/>
<path d="M396.785 249.839V161.217H370.223V249.839L383.5 235.996L396.785 249.839Z" fill="white"/>
<path opacity="0.15" d="M396.78 215.947V212H370.218V215.947H396.78Z" fill="black"/>
<path d="M378.781 94.3463V187.071C378.781 188.937 377.273 190.451 375.414 190.451C373.556 190.451 372.048 188.937 372.048 187.071V94.3463C372.048 92.4807 373.556 90.9666 375.414 90.9666C377.273 90.9666 378.781 92.4807 378.781 94.3463Z" fill="#C77000"/>
<path d="M397.95 114.3V167.125C397.95 168.99 396.441 170.504 394.583 170.504C392.725 170.504 391.216 168.99 391.216 167.125V114.3C391.216 112.434 392.725 110.92 394.583 110.92C396.441 110.92 397.95 112.428 397.95 114.3Z" fill="#C77000"/>
<path d="M470.774 284.508H511.751L511.765 284.494C504.385 282.331 498.945 275.579 498.918 267.467C498.891 259.207 504.48 252.306 512.054 250.224V248.859C504.466 246.831 498.831 239.963 498.804 231.703C498.777 223.443 504.358 216.542 511.94 214.46L511.933 213.088C504.345 211.06 498.716 204.193 498.682 195.94C498.655 187.68 504.244 180.778 511.819 178.696L511.812 177.324C504.224 175.296 498.588 168.436 498.561 160.176C498.534 151.916 504.123 145.014 511.697 142.932L511.691 141.56C504.103 139.532 498.467 132.672 498.44 124.412C498.413 116.152 503.995 109.251 511.576 107.169L511.569 105.797C503.981 103.769 498.346 96.9012 498.319 88.648C498.292 80.3881 503.88 73.4866 511.455 71.4047V70.0325C503.867 68.0047 498.231 61.144 498.204 52.884C498.178 44.6241 503.766 37.7228 511.341 35.6409L511.334 34.2687C503.746 32.2409 498.117 25.3802 498.09 17.1202C498.063 9.93502 502.291 3.77035 508.365 0.904367C508.318 0.843532 508.264 0.78945 508.217 0.728616H470.787L470.787 284.508H470.774Z" fill="#C77000"/>
<path d="M41.2736 284.508H0.296296L0.289516 284.494C7.66892 282.331 13.1094 275.579 13.1363 267.467C13.1632 259.207 7.57467 252.306 0 250.224L0 248.859C7.58813 246.831 13.2238 239.963 13.2507 231.703C13.2777 223.443 7.69585 216.542 0.11445 214.46L0.121231 213.088C7.70936 211.06 13.3383 204.193 13.372 195.94C13.3989 187.68 7.81035 180.778 0.235681 178.696L0.242462 177.324C7.8306 175.296 13.4661 168.436 13.493 160.176C13.5199 151.916 7.93158 145.014 0.356912 142.932L0.363693 141.56C7.95183 139.532 13.5873 132.672 13.6142 124.412C13.6412 116.152 8.05954 109.251 0.478143 107.169L0.484923 105.797C8.07306 103.769 13.7085 96.9012 13.7355 88.648C13.7624 80.3881 8.17404 73.4866 0.599374 71.4047L0.605949 70.0325C8.19408 68.0047 13.8298 61.144 13.8567 52.884C13.8836 44.6241 8.29527 37.7228 0.720604 35.6409L0.72718 34.2687C8.31531 32.2409 13.9442 25.3802 13.9711 17.1202C13.9981 9.93502 9.76971 3.77035 3.69651 0.904367C3.74364 0.843532 3.79753 0.78945 3.84466 0.728616H41.2736L41.2736 284.508Z" fill="#C77000"/>
<path d="M482.55 0.734772L34.0484 0.734772L34.0484 284.5L482.55 284.5L482.55 0.734772Z" fill="#36D6B6"/>
<path d="M252.364 0.738098L34.0449 0.738098L34.0449 284.504L252.364 284.504L252.364 0.738098Z" fill="#2CB096"/>
<path d="M435.682 0.740112L375.415 0.740112L375.415 284.506H435.682L435.682 0.740112Z" fill="#2CB096"/>
<path d="M470.77 0.738739L464.885 0.738739L464.885 284.505H470.77L470.77 0.738739Z" fill="#C77000"/>
<path d="M470.774 284.508H511.751L511.765 284.494C504.385 282.331 498.945 275.579 498.918 267.467C498.891 259.207 504.48 252.306 512.054 250.224V248.859C504.466 246.831 498.831 239.963 498.804 231.703C498.777 223.443 504.358 216.542 511.94 214.46L511.933 213.088C504.345 211.06 498.716 204.193 498.682 195.94C498.655 187.68 504.244 180.778 511.819 178.696L511.812 177.324C504.224 175.296 498.588 168.436 498.561 160.176C498.534 151.916 504.123 145.014 511.697 142.932L511.691 141.56C504.103 139.532 498.467 132.672 498.44 124.412C498.413 116.152 503.995 109.251 511.576 107.169L511.569 105.797C503.981 103.769 498.346 96.9012 498.319 88.648C498.292 80.3881 503.88 73.4866 511.455 71.4047V70.0325C503.867 68.0047 498.231 61.144 498.204 52.884C498.178 44.6241 503.766 37.7228 511.341 35.6409L511.334 34.2687C503.746 32.2409 498.117 25.3802 498.09 17.1202C498.063 9.93502 502.291 3.77035 508.365 0.904367C508.318 0.843532 508.264 0.78945 508.217 0.728616H470.787L470.787 284.508H470.774Z" fill="#C73661"/>
<path d="M41.2736 284.508H0.296296L0.289516 284.494C7.66892 282.331 13.1094 275.579 13.1363 267.467C13.1632 259.207 7.57467 252.306 0 250.224L0 248.859C7.58813 246.831 13.2238 239.963 13.2507 231.703C13.2777 223.443 7.69585 216.542 0.11445 214.46L0.121231 213.088C7.70936 211.06 13.3383 204.193 13.372 195.94C13.3989 187.68 7.81035 180.778 0.235681 178.696L0.242462 177.324C7.8306 175.296 13.4661 168.436 13.493 160.176C13.5199 151.916 7.93158 145.014 0.356912 142.932L0.363693 141.56C7.95183 139.532 13.5873 132.672 13.6142 124.412C13.6412 116.152 8.05954 109.251 0.478143 107.169L0.484923 105.797C8.07306 103.769 13.7085 96.9012 13.7355 88.648C13.7624 80.3881 8.17404 73.4866 0.599374 71.4047L0.605949 70.0325C8.19408 68.0047 13.8298 61.144 13.8567 52.884C13.8836 44.6241 8.29527 37.7228 0.720604 35.6409L0.72718 34.2687C8.31531 32.2409 13.9442 25.3802 13.9711 17.1202C13.9981 9.93502 9.76971 3.77035 3.69651 0.904367C3.74364 0.843532 3.79753 0.78945 3.84466 0.728616H41.2736L41.2736 284.508Z" fill="#C73661"/>
<path d="M482.55 0.734772L34.0484 0.734772L34.0484 284.5L482.55 284.5L482.55 0.734772Z" fill="#36D6B6"/>
<path d="M252.364 0.738098L34.0449 0.738098L34.0449 284.504L252.364 284.504L252.364 0.738098Z" fill="#2CB096"/>
<path d="M435.682 0.740112L375.415 0.740112L375.415 284.506H435.682L435.682 0.740112Z" fill="#2CB096"/>
<path d="M470.77 0.738739L464.885 0.738739L464.885 284.505H470.77L470.77 0.738739Z" fill="#C73661"/>
<path d="M352.305 219.994H168.77V275.077H352.305V219.994Z" fill="white"/>
<path d="M401.02 260.816H286.914V234.255H401.02L383.195 247.532L401.02 260.816Z" fill="white"/>
<path opacity="0.15" d="M357.388 234.255H352.305V260.816H357.388V234.255Z" fill="black"/>
<path d="M120.02 260.816H234.134V234.255H120.02L137.845 247.532L120.02 260.816Z" fill="white"/>
<path opacity="0.15" d="M163.661 260.812H168.743V234.25H163.661V260.812Z" fill="black"/>
<path d="M320.24 242.812H200.843C198.441 242.812 196.491 241.304 196.491 239.446C196.491 237.588 198.441 236.079 200.843 236.079H320.24C322.643 236.079 324.592 237.588 324.592 239.446C324.592 241.304 322.643 242.812 320.24 242.812Z" fill="#2CB096"/>
<path d="M294.547 261.981H226.527C224.125 261.981 222.176 260.473 222.176 258.615C222.176 256.756 224.125 255.248 226.527 255.248H294.547C296.949 255.248 298.899 256.756 298.899 258.615C298.899 260.473 296.958 261.981 294.547 261.981Z" fill="#2CB096"/>
<path d="M135.02 127.994L135.02 209.994L219.02 209.994V127.994L135.02 127.994Z" fill="#784300"/>
<path d="M219.02 209.994L198.299 189.403L204.287 142.384L219.02 127.994L219.02 209.994Z" fill="#945300"/>
<path d="M135.02 209.994L155.748 189.403L149.761 142.384L135.02 127.994L135.02 209.994Z" fill="#945300"/>
<path d="M149.761 142.384V195.612H204.287V142.384H149.761Z" fill="#D97A00"/>
<path d="M135.02 45.9941L135.02 127.994L219.02 127.994V45.9941L135.02 45.9941Z" fill="#784300"/>
<path d="M219.02 127.994L198.299 107.403L204.287 60.3839L219.02 45.994L219.02 127.994Z" fill="#945300"/>
<path d="M135.02 127.994L155.748 107.403L149.761 60.384L135.02 45.9941L135.02 127.994Z" fill="#945300"/>
<path d="M149.761 60.3839V113.612L204.287 113.612V60.3839L149.761 60.3839Z" fill="#D97A00"/>
<path d="M219.02 127.994L219.02 209.994L303.02 209.994V127.994L219.02 127.994Z" fill="#784300"/>
<path d="M303.02 209.994L282.299 189.403L288.286 142.384L303.02 127.994V209.994Z" fill="#945300"/>
<path d="M219.02 209.994L239.748 189.403L233.761 142.384L219.02 127.994L219.02 209.994Z" fill="#945300"/>
<path d="M233.761 142.384V195.612H288.286V142.384H233.761Z" fill="#D97A00"/>
<path d="M219.02 45.9941L219.02 127.994L303.02 127.994V45.9941L219.02 45.9941Z" fill="#784300"/>
<path d="M303.02 127.994L282.299 107.403L288.286 60.384L303.02 45.9941V127.994Z" fill="#945300"/>
<path d="M219.02 127.994L239.748 107.403L233.761 60.384L219.02 45.9941L219.02 127.994Z" fill="#945300"/>
<path d="M233.761 60.384V113.612L288.286 113.612V60.384L233.761 60.384Z" fill="#D97A00"/>
<path d="M303.02 127.994V209.994L387.02 209.994V127.994L303.02 127.994Z" fill="#784300"/>
<path d="M387.02 209.994L366.299 189.403L372.287 142.384L387.02 127.994V209.994Z" fill="#945300"/>
<path d="M303.02 209.994L323.748 189.403L317.761 142.384L303.02 127.994V209.994Z" fill="#945300"/>
<path d="M317.761 142.384V195.612H372.287V142.384H317.761Z" fill="#D97A00"/>
<path d="M303.02 45.9941V127.994L387.02 127.994V45.9941L303.02 45.9941Z" fill="#784300"/>
<path d="M387.02 127.994L366.299 107.403L372.287 60.3839L387.02 45.994V127.994Z" fill="#945300"/>
<path d="M303.02 127.994L323.748 107.403L317.761 60.384L303.02 45.9941V127.994Z" fill="#945300"/>
<path d="M317.761 60.3841V113.612L372.287 113.612V60.3841L317.761 60.3841Z" fill="#D97A00"/>
</svg>
