<svg width="473" height="473" viewBox="0 0 473 473" fill="none" xmlns="http://www.w3.org/2000/svg">
<path d="M354.232 354.487C419.335 289.384 419.335 183.831 354.232 118.727C289.128 53.6241 183.575 53.6241 118.472 118.727C53.3685 183.831 53.3686 289.384 118.472 354.487C183.575 419.59 289.128 419.591 354.232 354.487Z" fill="#E9B522"/>
<path d="M236.356 436.003C126.409 436.003 36.9601 346.554 36.9601 236.607C36.9601 126.66 126.409 37.212 236.356 37.212C346.303 37.212 435.752 126.66 435.752 236.607C435.752 346.554 346.303 436.003 236.356 436.003ZM236.356 69.899C144.433 69.899 69.6471 144.684 69.6471 236.607C69.6471 328.53 144.433 403.317 236.356 403.317C328.279 403.317 403.065 328.531 403.065 236.607C403.065 144.683 328.279 69.899 236.356 69.899Z" fill="#F7DE61"/>
<path d="M289.636 309.479C280.911 318.049 269.216 323.417 254.549 325.575V351.285H230.927V326.039C220.582 325.266 210.97 323.262 202.094 320.018C193.213 316.777 185.455 312.376 178.818 306.819L189.009 285.05C202.44 295.55 216.952 301.339 232.547 302.418V254.246C222.202 251.624 213.477 248.727 206.377 245.564C199.275 242.401 193.329 237.686 188.545 231.437C183.759 225.184 181.367 217.039 181.367 207.003C181.367 198.665 183.45 191.062 187.618 184.19C191.787 177.322 197.613 171.61 205.104 167.054C212.591 162.502 221.2 159.605 230.926 158.368V132.662H254.548V158.136C263.501 159.219 271.918 161.381 279.792 164.621C287.666 167.866 294.302 171.957 299.709 176.896L289.519 198.665C278.248 189.403 266.048 183.845 252.928 181.989V232.245C263.269 234.875 271.839 237.686 278.634 240.699C285.427 243.708 291.139 248.225 295.772 254.246C300.403 260.267 302.72 268.141 302.72 277.868C302.721 290.375 298.357 300.913 289.636 309.479ZM216.801 218.466C220.506 221.788 225.754 224.603 232.549 226.92V182.221C225.909 183.613 220.698 186.317 216.917 190.327C213.131 194.345 211.244 199.361 211.244 205.382C211.243 210.789 213.096 215.147 216.801 218.466ZM267.751 293.503C271.145 289.721 272.846 284.817 272.846 278.796C272.846 274.012 271.144 270.153 267.751 267.217C264.354 264.286 259.413 261.814 252.929 259.803V301.261C259.413 299.869 264.353 297.286 267.751 293.503Z" fill="#CE9811"/>
<path d="M49.1201 236.607C49.1201 128.695 135.291 40.539 242.436 37.313C240.416 37.252 238.391 37.212 236.357 37.212C126.41 37.212 36.9611 126.66 36.9611 236.607C36.9611 346.554 126.41 436.003 236.357 436.003C238.392 436.003 240.417 435.963 242.436 435.902C135.291 432.676 49.1201 344.519 49.1201 236.607Z" fill="#FFF2BD"/>
<path d="M236.356 69.899C234.574 69.899 232.802 69.937 231.033 69.993C320.502 72.814 392.419 146.465 392.419 236.607C392.419 326.749 320.502 400.401 231.033 403.223C232.801 403.279 234.574 403.317 236.356 403.317C328.279 403.317 403.065 328.531 403.065 236.607C403.065 144.683 328.279 69.899 236.356 69.899Z" fill="#CE9811"/>
<path d="M212.387 213.099C216.092 216.421 221.34 219.237 228.135 221.553V176.854C221.495 178.246 216.283 180.95 212.503 184.96C208.717 188.978 206.83 193.994 206.83 200.016C206.829 205.423 208.682 209.781 212.387 213.099ZM263.337 288.137C266.731 284.355 268.432 279.451 268.432 273.43C268.432 268.646 266.73 264.787 263.337 261.851C259.94 258.92 254.999 256.448 248.515 254.437V295.895C254.999 294.503 259.939 291.92 263.337 288.137ZM285.222 304.113C276.497 312.683 264.802 318.051 250.136 320.209V345.919H226.514V320.673C216.169 319.9 206.557 317.896 197.681 314.652C188.8 311.411 181.042 307.01 174.406 301.453L184.596 279.684C198.027 290.184 212.539 295.973 228.134 297.052V248.88C217.789 246.258 209.064 243.361 201.964 240.198C194.862 237.034 188.916 232.32 184.132 226.071C179.346 219.818 176.954 211.673 176.954 201.637C176.954 193.299 179.036 185.696 183.205 178.824C187.374 171.956 193.2 166.244 200.691 161.688C208.178 157.136 216.787 154.24 226.513 153.002V127.296H250.135V152.77C259.088 153.853 267.505 156.015 275.379 159.256C283.253 162.501 289.889 166.592 295.296 171.531L285.106 193.3C273.835 184.038 261.635 178.48 248.515 176.624V226.88C258.856 229.51 267.426 232.321 274.221 235.334C281.014 238.343 286.726 242.86 291.359 248.881C295.99 254.902 298.307 262.776 298.307 272.503C298.307 285.009 293.943 295.547 285.222 304.113Z" fill="#F7DE61"/>
</svg>
