<svg width="284" height="916" viewBox="0 0 284 916" fill="none" xmlns="http://www.w3.org/2000/svg">
<path d="M82.6366 60.0632C81.3581 99.6707 74.859 171.494 47.527 247.399C53.4911 246.991 59.5616 246.306 65.7344 245.275C97.1639 240.026 101.584 231.049 135.153 221.137C147.161 217.589 180.234 207.857 219.095 207.819C201.7 147.093 196.703 92.4018 195.428 59.6823L197.489 59.6746C202.444 59.6592 206.488 55.5303 206.469 50.5048C206.454 45.4793 202.383 41.3812 197.428 41.3966L195.03 41.4043C195.004 32.7463 195.246 27.9363 195.246 27.9363C195.44 19.4937 144.896 20.7213 138.902 20.8983C132.903 20.7636 82.3521 19.8824 82.6063 28.3249C82.6063 28.3249 82.8795 33.1349 82.9136 41.7929H82.6518C77.6931 41.8083 73.6563 45.9372 73.6714 50.9627C73.6866 55.9651 77.7158 60.0401 82.6366 60.0632Z" fill="#DCF1FD"/>
<path d="M281.586 887.718C289.542 855.941 268.933 791.076 255.985 747.828C245.809 713.846 256.702 675.339 261.839 660.397C263.554 655.407 264.889 650.335 265.75 645.121C273.092 600.788 302.044 401.031 248.761 287.511C236.161 260.667 226.543 233.708 219.126 207.823C180.249 207.853 147.165 217.593 135.153 221.14C101.584 231.053 97.1639 240.03 65.7344 245.279C59.5388 246.314 53.4419 247.003 47.4587 247.407C42.5796 260.952 37.1201 274.612 30.8296 288.257C-21.6945 402.139 8.5854 601.696 16.2227 645.975C17.1219 651.181 18.4877 656.245 20.2368 661.225C25.4725 676.132 36.6193 714.566 26.6714 748.613C14.0108 791.949 -6.16187 856.957 2.00661 888.676C10.1106 920.149 91.3743 913.019 141.292 915.554V915.616C141.485 915.604 141.69 915.597 141.884 915.585C142.077 915.597 142.282 915.601 142.476 915.612V915.554C192.378 912.672 273.691 919.245 281.586 887.718Z" fill="#6B3519"/>
<path opacity="0.2" d="M172.767 639.191C171.894 643.913 170.597 648.492 168.954 652.994C164.033 666.473 153.482 701.255 162.14 732.293C173.161 771.801 190.762 831.075 182.996 859.793C178.655 875.835 153.387 880.499 124.037 881.823C130.065 881.931 135.87 882.092 141.296 882.365V882.427C141.489 882.415 141.694 882.408 141.888 882.396C142.081 882.408 142.286 882.412 142.479 882.423V882.362C170.76 880.73 209.117 882.127 238.494 877.909C245.21 874.662 249.865 870.237 251.504 864.168C259.274 835.451 241.67 776.176 230.648 736.672C221.99 705.631 232.541 670.852 237.462 657.373C239.105 652.871 240.403 648.288 241.275 643.57C248.704 603.439 278.418 422.529 231.972 318.495C220.989 293.891 212.714 269.24 206.423 245.602C179.778 245.106 156.051 249.689 141.288 253.26C147.093 273.173 154.332 293.66 163.46 314.116C209.906 418.15 180.196 599.06 172.767 639.191Z" fill="white"/>
<g opacity="0.15">
<path d="M281.586 854.529C273.695 886.056 192.378 879.483 142.479 882.365V882.427C142.286 882.416 142.081 882.408 141.888 882.4C141.694 882.412 141.489 882.419 141.296 882.431V882.369C91.3743 879.83 10.1106 886.96 2.01039 855.487C1.7562 854.494 1.60823 853.379 1.40715 852.324C-0.307742 866.458 -0.455706 879.099 2.01039 888.676C10.1144 920.149 91.3781 913.019 141.296 915.554V915.616C141.489 915.605 141.694 915.597 141.888 915.585C142.081 915.597 142.286 915.601 142.479 915.612V915.554C192.378 912.672 273.695 919.249 281.586 887.718C283.943 878.294 283.749 865.923 282.03 852.109C281.875 852.905 281.776 853.767 281.586 854.529Z" fill="black"/>
</g>
<path d="M103.618 29.3677C106.896 29.3562 109.635 31.615 110.458 34.6741L111.001 34.6703C111.805 31.6034 114.529 29.3293 117.807 29.3177C121.085 29.3062 123.824 31.5649 124.651 34.6241L125.194 34.6203C125.998 31.5534 128.722 29.2792 132 29.2677C135.278 29.2561 138.018 31.5149 138.841 34.5741L139.384 34.5702C140.188 31.5034 142.912 29.2292 146.19 29.2177C149.468 29.2061 152.207 31.4649 153.034 34.5241H153.577C154.381 31.4572 157.105 29.183 160.383 29.1715C163.661 29.1599 166.401 31.4187 167.228 34.4779H167.77C168.575 31.411 171.299 29.1369 174.577 29.1253C177.855 29.1138 180.594 31.3726 181.421 34.4317H181.964C182.768 31.3649 185.492 29.0907 188.77 29.0792C191.623 29.0715 194.07 30.7761 195.205 33.2311C199.545 29.868 202.364 24.577 202.345 18.6434C202.311 8.58468 194.169 0.38076 184.251 0.415392L91.9737 0.730931C82.0562 0.765563 73.9674 9.02338 74.0016 19.082C74.0243 25.6429 77.5034 31.3956 82.6671 34.6049C83.5245 31.6227 86.2069 29.4255 89.4242 29.4139C92.7022 29.4024 95.4415 31.6611 96.2685 34.7203H96.8111C97.6154 31.6573 100.34 29.3793 103.618 29.3677Z" fill="#EC4046"/>
<path d="M118.3 0.642395L91.9737 0.730909C82.0562 0.765541 73.9674 9.02335 74.0016 19.082C74.0243 25.6429 77.5034 31.3956 82.6671 34.6048C83.5245 31.6226 86.2069 29.4254 89.4242 29.4139C92.7022 29.4024 95.4415 31.6611 96.2648 34.7203H96.8073C97.6116 31.6534 100.336 29.3793 103.614 29.3677C106.892 29.3562 109.631 31.6149 110.454 34.6741L110.997 34.6703C111.801 31.6034 114.525 29.3292 117.803 29.3177C118.004 29.3177 118.194 29.3523 118.388 29.3677L118.3 0.642395Z" fill="#D11920"/>
<path d="M9.59077 601.315H271.976C279.583 538.847 287.46 432.315 268.042 345.854H12.1366C-6.8638 432.184 1.57405 538.566 9.59077 601.315Z" fill="#EC4046"/>
<path opacity="0.15" d="M5.74369 382.864C-1.92019 441.223 0.158936 504.207 4.58653 554.862C45.5276 538.516 98.7878 513.542 183.455 514.373C220.78 514.739 252.293 520.007 278.741 524.705C279.815 504.85 280.38 483.782 280.107 462.322C268.994 468.167 257.001 473.412 244.022 476.982C156.335 501.094 73.0606 435.205 5.74369 382.864Z" fill="black"/>
<path opacity="0.15" d="M275.061 573.567C282.725 515.208 280.646 452.224 276.218 401.569C235.277 417.916 182.017 442.889 97.3498 442.058C60.0244 441.692 28.5114 436.425 2.06347 431.726C0.98977 451.582 0.424464 472.65 0.693838 494.11C11.8065 488.265 23.8031 483.02 36.7786 479.449C124.473 455.341 207.748 521.227 275.061 573.567Z" fill="black"/>
<path d="M187.59 21.7371H157.887C156.035 21.7371 154.518 20.1979 154.518 18.3201V14.4375C154.518 12.5596 156.035 11.0204 157.887 11.0204H187.59C189.442 11.0204 190.959 12.5596 190.959 14.4375V18.3201C190.963 20.2018 189.445 21.7371 187.59 21.7371Z" fill="white"/>
<g opacity="0.15">
<path d="M117.583 74.0238L196.149 73.7544C195.831 68.7251 195.599 64.0343 195.428 59.7284L118.205 59.9901C118.205 59.9747 118.205 59.9555 118.205 59.9401C118.539 57.7813 118.482 41.6698 118.482 41.6698C118.46 35.0512 118.293 30.6914 118.217 28.9983C118.084 28.9906 117.959 28.9675 117.822 28.9675C114.544 28.9791 111.82 31.2532 111.016 34.3201H110.473C109.65 31.2609 106.911 29.0022 103.629 29.0137C100.351 29.0253 97.6267 31.2994 96.8224 34.3663H96.2798C95.4565 31.3071 92.7173 29.0483 89.4393 29.0599C86.3472 29.0714 83.7673 31.107 82.8074 33.9122C82.8567 35.9978 82.9022 38.6337 82.9136 41.7891H82.8187C78.6529 41.8045 74.8893 44.6212 73.9294 48.7308C72.537 54.6914 77.0026 60.0324 82.6404 60.0593C82.6404 60.0747 82.6404 60.0901 82.6404 60.1094C82.6366 60.1671 82.6366 60.2287 82.6328 60.2864C82.5949 61.4947 82.5456 62.7376 82.4963 64.0036C82.4773 64.5038 82.4545 65.0156 82.4356 65.5235C82.4014 66.3893 82.3597 67.2667 82.3179 68.1594C82.2914 68.7712 82.261 69.3831 82.2307 70.0065C82.1852 70.9723 82.132 71.9612 82.0751 72.9579C82.0524 73.3581 82.0334 73.7428 82.0106 74.1469C79.2296 123.655 68.5419 206.487 30.8296 288.261C-19.3992 397.163 6.09648 584.407 15.0996 639.299C16.4731 647.664 18.4839 655.891 21.1587 663.926C26.6448 680.392 36.0653 716.459 26.6713 748.617C14.0108 791.953 -6.16194 856.961 2.00274 888.68C10.1067 920.153 91.3742 913.022 141.292 915.558V915.62C141.485 915.608 141.69 915.601 141.884 915.589C142.077 915.601 142.282 915.604 142.476 915.616V915.554C147.878 915.243 153.66 915.046 159.666 914.893C110.192 913.992 44.7991 916.62 37.5715 888.557C29.4068 856.838 49.5795 791.83 62.2401 748.494C71.634 716.336 62.2135 680.272 56.7274 663.803C54.0526 655.768 52.038 647.541 50.6684 639.176C41.6614 584.284 16.1695 397.04 66.3983 288.138C104.114 206.364 114.798 123.532 117.583 74.0238Z" fill="black"/>
</g>
<path opacity="0.15" d="M202.352 832.642C218.235 832.642 231.111 819.583 231.111 803.474C231.111 787.365 218.235 774.306 202.352 774.306C186.47 774.306 173.594 787.365 173.594 803.474C173.594 819.583 186.47 832.642 202.352 832.642Z" fill="black"/>
<path opacity="0.15" d="M186.346 760.476C186.346 764.567 183.075 767.887 179.042 767.887C175.009 767.887 171.735 764.571 171.735 760.476C171.735 756.382 175.005 753.065 179.042 753.065C183.079 753.065 186.346 756.386 186.346 760.476Z" fill="black"/>
<path opacity="0.15" d="M205.691 688.295C205.691 691.278 203.309 693.694 200.368 693.694C197.428 693.694 195.045 691.278 195.045 688.295C195.045 685.313 197.428 682.897 200.368 682.897C203.309 682.897 205.691 685.313 205.691 688.295Z" fill="black"/>
<path opacity="0.15" d="M103.454 311.599C103.454 314.582 101.072 316.998 98.1313 316.998C95.191 316.998 92.8083 314.582 92.8083 311.599C92.8083 308.617 95.191 306.201 98.1313 306.201C101.072 306.201 103.454 308.617 103.454 311.599Z" fill="black"/>
<path opacity="0.15" d="M225.154 644.521C228.094 644.521 230.477 642.103 230.477 639.122C230.477 636.14 228.094 633.723 225.154 633.723C222.215 633.723 219.831 636.14 219.831 639.122C219.831 642.103 222.215 644.521 225.154 644.521Z" fill="black"/>
<path opacity="0.15" d="M200.368 282.493C203.308 282.493 205.691 280.076 205.691 277.094C205.691 274.113 203.308 271.696 200.368 271.696C197.428 271.696 195.045 274.113 195.045 277.094C195.045 280.076 197.428 282.493 200.368 282.493Z" fill="black"/>
<path opacity="0.15" d="M172.74 263.384C172.74 266.366 170.358 268.783 167.417 268.783C164.477 268.783 162.094 266.366 162.094 263.384C162.094 260.402 164.477 257.985 167.417 257.985C170.358 257.985 172.74 260.402 172.74 263.384Z" fill="black"/>
<path opacity="0.15" d="M130.707 753.069C130.707 757.159 127.436 760.48 123.399 760.48C119.363 760.48 116.096 757.163 116.096 753.069C116.096 748.975 119.366 745.658 123.399 745.658C127.432 745.658 130.707 748.975 130.707 753.069Z" fill="black"/>
<path opacity="0.15" d="M123.403 681.196C123.403 690.319 116.111 697.715 107.116 697.715C98.1199 697.715 90.8279 690.319 90.8279 681.196C90.8279 672.072 98.1199 664.676 107.116 664.676C116.111 664.676 123.403 672.072 123.403 681.196Z" fill="black"/>
<path opacity="0.15" d="M146.994 854.441C146.994 863.564 139.702 870.96 130.707 870.96C121.711 870.96 114.419 863.564 114.419 854.441C114.419 845.317 121.711 837.921 130.707 837.921C139.702 837.921 146.994 845.317 146.994 854.441Z" fill="black"/>
<path opacity="0.15" d="M170.934 645.509C170.934 652.02 165.729 657.296 159.313 657.296C152.894 657.296 147.692 652.016 147.692 645.509C147.692 638.999 152.898 633.723 159.313 633.723C165.729 633.723 170.934 638.999 170.934 645.509Z" fill="black"/>
<path opacity="0.15" d="M179.038 323.386C185.457 323.386 190.659 318.109 190.659 311.599C190.659 305.09 185.457 299.813 179.038 299.813C172.62 299.813 167.417 305.09 167.417 311.599C167.417 318.109 172.62 323.386 179.038 323.386Z" fill="black"/>
<path opacity="0.15" d="M102.449 794.581C108.867 794.581 114.07 789.304 114.07 782.795C114.07 776.285 108.867 771.008 102.449 771.008C96.0308 771.008 90.8279 776.285 90.8279 782.795C90.8279 789.304 96.0308 794.581 102.449 794.581Z" fill="black"/>
<g opacity="0.15">
<path d="M281.586 854.529C273.695 886.056 192.378 879.483 142.479 882.365V882.427C142.286 882.416 142.081 882.408 141.888 882.4C141.694 882.412 141.489 882.419 141.296 882.431V882.369C91.3743 879.83 10.1106 886.96 2.01039 855.487C1.7562 854.494 1.60823 853.379 1.40715 852.324C-0.307742 866.458 -0.455706 879.099 2.01039 888.676C10.1144 920.149 91.3781 913.019 141.296 915.554V915.616C141.489 915.605 141.694 915.597 141.888 915.585C142.081 915.597 142.286 915.601 142.479 915.612V915.554C192.378 912.672 273.695 919.249 281.586 887.718C283.943 878.294 283.749 865.923 282.03 852.109C281.875 852.905 281.776 853.767 281.586 854.529Z" fill="black"/>
</g>
</svg>
