<svg width="515" height="288" viewBox="0 0 515 288" fill="none" xmlns="http://www.w3.org/2000/svg">
<path d="M472.666 288.004H513.747C513.747 288.004 513.755 287.997 513.759 287.989C506.357 285.799 500.908 278.961 500.882 270.746C500.855 262.38 506.455 255.389 514.047 253.284L514.043 251.899C506.433 249.844 500.791 242.894 500.761 234.529C500.734 226.163 506.33 219.171 513.926 217.066L513.918 215.681C506.311 213.63 500.669 206.677 500.635 198.311C500.609 189.946 506.209 182.954 513.8 180.849L513.797 179.464C506.19 177.413 500.544 170.459 500.514 162.094C500.487 153.728 506.087 146.737 513.679 144.632L513.675 143.246C506.064 141.191 500.423 134.242 500.392 125.877C500.366 117.511 505.962 110.519 513.558 108.414L513.55 107.029C505.943 104.978 500.298 98.0246 500.267 89.6591C500.241 81.2935 505.841 74.3017 513.432 72.1969L513.429 70.8117C505.822 68.7607 500.176 61.8073 500.146 53.4418C500.119 45.0762 505.719 38.0844 513.311 35.9796L513.303 34.5903C505.697 32.5355 500.051 25.5861 500.024 17.2206C500.002 9.94399 504.236 3.69866 510.325 0.79727C510.276 0.735702 510.223 0.681868 510.173 0.6203H472.655V288.004H472.666Z" fill="#C73661"/>
<path d="M42.1152 288.004H1.03373C1.03373 288.004 1.02613 287.997 1.02234 287.989C8.42443 285.799 13.8726 278.961 13.8992 270.746C13.9257 262.38 8.3258 255.389 0.734009 253.284L0.737801 251.899C8.34857 249.844 13.9902 242.894 14.0206 234.529C14.0472 226.163 8.451 219.171 0.855408 217.066L0.862992 215.681C8.46996 213.63 14.1154 206.677 14.1458 198.311C14.1724 189.946 8.57241 182.954 0.980614 180.849L0.984406 179.464C8.59138 177.413 14.2368 170.459 14.2672 162.094C14.2938 153.728 8.69382 146.737 1.10203 144.632L1.10582 143.246C8.71658 141.192 14.3583 134.242 14.3886 125.877C14.4152 117.511 8.81902 110.519 1.22343 108.414L1.23101 107.029C8.83798 104.978 14.4835 98.0247 14.5138 89.6591C14.5404 81.2936 8.94043 74.3018 1.34863 72.1969L1.35242 70.8117C8.95939 68.7607 14.6049 61.8074 14.6352 53.4418C14.6618 45.0763 9.06183 38.0845 1.47003 35.9796L1.47763 34.5904C9.0846 32.5356 14.7263 25.5862 14.7566 17.2206C14.7794 9.94405 10.5453 3.69872 4.45592 0.797331C4.50524 0.735763 4.55836 0.681929 4.60768 0.620361H42.1265V288.004H42.1152Z" fill="#C73661"/>
<path d="M484.477 0.6203H34.8724V288.008H484.477V0.6203Z" fill="#36D6B6"/>
<path d="M362.507 0.6203H152.19V288.008H362.507V0.6203Z" fill="#2CB096"/>
<path d="M260.437 247.192C331.196 247.192 388.557 201.131 388.557 144.312C388.557 87.4931 331.196 41.4321 260.437 41.4321C189.679 41.4321 132.318 87.4931 132.318 144.312C132.318 201.131 189.679 247.192 260.437 247.192Z" fill="white"/>
<path d="M121.55 149.98C146.507 150.546 166.285 171.522 165.727 196.834C165.587 203.268 164.138 209.363 161.653 214.865C169.741 218.502 175.303 226.802 175.091 236.333C174.951 242.694 172.268 248.385 168.049 252.445C171.896 253.072 175.823 253.461 179.83 253.553C227.126 254.627 266.329 216.608 267.384 168.639C268.442 120.666 230.958 80.9088 183.658 79.8352C138.972 78.8232 101.533 112.705 96.6387 156.903C103.855 152.339 112.414 149.773 121.55 149.98Z" fill="#FFA32B"/>
<path d="M211.237 152.772C221.233 150.67 227.657 140.748 225.584 130.609C223.512 120.47 213.728 113.955 203.732 116.057C193.736 118.159 187.312 128.082 189.385 138.22C191.457 148.359 201.24 154.874 211.237 152.772Z" fill="#C77000"/>
<path d="M129.555 110.134C125.966 107.745 124.965 102.854 127.321 99.2137C129.677 95.5735 134.499 94.5577 138.088 96.9473C141.677 99.3369 142.679 104.228 140.323 107.868C137.967 111.512 133.145 112.524 129.555 110.134Z" fill="#C77000"/>
<path d="M183.939 89.4244C180.35 87.0348 179.348 82.144 181.704 78.5038C184.06 74.8636 188.882 73.8478 192.471 76.2374C196.06 78.627 197.062 83.5177 194.706 87.1579C192.35 90.802 187.528 91.814 183.939 89.4244Z" fill="#C77000"/>
<path d="M176.639 215.789C173.05 213.399 172.048 208.508 174.404 204.868C176.76 201.228 181.583 200.212 185.172 202.602C188.761 204.991 189.762 209.882 187.406 213.522C185.05 217.166 180.228 218.179 176.639 215.789Z" fill="#C77000"/>
<path d="M147.512 143.019C143.923 140.63 142.922 135.739 145.278 132.099C147.634 128.459 152.456 127.443 156.045 129.832C159.634 132.222 160.636 137.113 158.28 140.753C155.924 144.397 151.102 145.409 147.512 143.019Z" fill="#C77000"/>
<path d="M180.509 174.2C179.974 171.591 181.628 169.036 184.2 168.493C186.773 167.95 189.292 169.628 189.827 172.241C190.362 174.85 188.708 177.405 186.132 177.948C183.559 178.486 181.04 176.809 180.509 174.2Z" fill="#C77000"/>
<path d="M186.811 246.361C186.276 243.752 187.93 241.197 190.506 240.655C193.078 240.112 195.598 241.79 196.133 244.399C196.667 247.008 195.013 249.563 192.441 250.105C189.861 250.648 187.342 248.97 186.811 246.361Z" fill="#C77000"/>
<path d="M216.582 174.2C216.047 171.591 217.701 169.036 220.278 168.493C222.85 167.95 225.369 169.628 225.904 172.241C226.439 174.85 224.785 177.405 222.212 177.948C219.636 178.486 217.117 176.809 216.582 174.2Z" fill="#C77000"/>
<path d="M248.846 169.955C246.65 168.493 246.039 165.499 247.481 163.271C248.922 161.043 251.874 160.424 254.071 161.886C256.267 163.348 256.878 166.342 255.437 168.57C253.995 170.798 251.043 171.418 248.846 169.955Z" fill="#C77000"/>
<path d="M235.419 116.383C233.223 114.921 232.612 111.927 234.054 109.699C235.495 107.471 238.447 106.852 240.644 108.314C242.841 109.777 243.451 112.77 242.01 114.998C240.568 117.222 237.616 117.846 235.419 116.383Z" fill="#C77000"/>
<path d="M241.747 233.134C251.743 231.032 258.166 221.109 256.094 210.971C254.022 200.832 244.238 194.317 234.242 196.419C224.246 198.521 217.822 208.443 219.894 218.582C221.967 228.721 231.75 235.236 241.747 233.134Z" fill="#C77000"/>
<path opacity="0.1" d="M355.465 218.557C401.541 203.732 427.043 153.83 412.425 107.098C397.808 60.3668 348.606 34.5017 302.531 49.3272C256.455 64.1527 230.953 114.055 245.57 160.786C260.188 207.518 309.389 233.383 355.465 218.557Z" fill="black"/>
<path d="M417.723 159.857C434.075 113.723 410.458 62.8793 364.972 46.2938C319.486 29.7082 269.356 53.6616 253.003 99.7951C236.65 145.929 260.267 196.772 305.753 213.358C351.24 229.943 401.37 205.99 417.723 159.857Z" fill="#FFA32B"/>
<path d="M314.877 130.398C314.877 140.753 306.603 149.145 296.393 149.145C286.183 149.145 277.908 140.753 277.908 130.398C277.908 120.043 286.183 111.65 296.393 111.65C306.599 111.65 314.877 120.043 314.877 130.398Z" fill="#C77000"/>
<path d="M368.38 179.271C368.38 188.491 361.008 195.968 351.918 195.968C342.828 195.968 335.456 188.491 335.456 179.271C335.456 170.051 342.828 162.575 351.918 162.575C361.008 162.575 368.38 170.051 368.38 179.271Z" fill="#C77000"/>
<path d="M319.214 209.79C319.214 214.146 315.731 217.678 311.436 217.678C307.141 217.678 303.658 214.146 303.658 209.79C303.658 205.434 307.141 201.901 311.436 201.901C315.731 201.905 319.214 205.434 319.214 209.79Z" fill="#C77000"/>
<path d="M272.297 175.05C272.297 179.406 268.814 182.938 264.519 182.938C260.225 182.938 256.742 179.406 256.742 175.05C256.742 170.694 260.225 167.162 264.519 167.162C268.814 167.166 272.297 170.694 272.297 175.05Z" fill="#C77000"/>
<path d="M383.932 119.966C383.932 124.322 380.449 127.854 376.154 127.854C371.859 127.854 368.376 124.322 368.376 119.966C368.376 115.61 371.859 112.078 376.154 112.078C380.449 112.078 383.932 115.61 383.932 119.966Z" fill="#C77000"/>
<path d="M424.812 136.424C424.812 140.78 421.329 144.312 417.034 144.312C412.74 144.312 409.257 140.78 409.257 136.424C409.257 132.068 412.74 128.535 417.034 128.535C421.329 128.539 424.812 132.072 424.812 136.424Z" fill="#C77000"/>
<path d="M344.053 131.433C342.194 133.319 339.182 133.319 337.323 131.433C335.463 129.548 335.463 126.492 337.323 124.607C339.182 122.721 342.194 122.721 344.053 124.607C345.912 126.492 345.912 129.548 344.053 131.433Z" fill="#C77000"/>
<path d="M400.071 86.4883C398.212 88.3738 395.2 88.3738 393.341 86.4883C391.482 84.6028 391.482 81.5475 393.341 79.662C395.2 77.7765 398.212 77.7765 400.071 79.662C401.931 81.5475 401.931 84.6028 400.071 86.4883Z" fill="#C77000"/>
<path d="M388.443 164.222C391.07 164.222 393.201 162.061 393.201 159.396C393.201 156.731 391.07 154.571 388.443 154.571C385.815 154.571 383.685 156.731 383.685 159.396C383.685 162.061 385.815 164.222 388.443 164.222Z" fill="#C77000"/>
<path d="M303.047 75.8218C303.047 78.4884 300.915 80.6471 298.29 80.6471C295.661 80.6471 293.532 78.4884 293.532 75.8218C293.532 73.1551 295.664 70.9963 298.29 70.9963C300.915 70.9924 303.047 73.1551 303.047 75.8218Z" fill="#C77000"/>
<path d="M266.261 116.607C266.261 119.273 264.129 121.432 261.503 121.432C258.874 121.432 256.745 119.273 256.745 116.607C256.745 113.94 258.878 111.781 261.503 111.781C264.129 111.781 266.261 113.944 266.261 116.607Z" fill="#C77000"/>
<path d="M362.507 78.2036C362.507 88.5586 354.232 96.9511 344.023 96.9511C333.813 96.9511 325.538 88.5586 325.538 78.2036C325.538 67.8486 333.813 59.4561 344.023 59.4561C354.232 59.4561 362.507 67.8525 362.507 78.2036Z" fill="#C77000"/>
<path d="M472.67 0.6203H466.766V288.008H472.67V0.6203Z" fill="#C73661"/>
<path d="M53.0039 0.6203H47.1005V288.008H53.0039V0.6203Z" fill="#C73661"/>
<path opacity="0.2" d="M293.396 20.3413H71.7653V267.225H293.396V20.3413Z" fill="white"/>
<path opacity="0.2" d="M446.833 18.8251H365.55V265.709H446.833V18.8251Z" fill="white"/>
</svg>
