<svg width="349" height="491" viewBox="0 0 349 491" fill="none" xmlns="http://www.w3.org/2000/svg">
<path d="M314.361 57.3002L349 0H174.498H0L34.6391 57.1478V412.538L0 491H174.498H349L314.361 414.468V57.3002Z" fill="#2CB096"/>
<path d="M34.643 412.538L6.10352e-05 491H174.498H349L314.361 414.468L34.643 412.538Z" fill="#36D6B6"/>
<path d="M21.0249 34.6807H328.032L331.253 29.3535H17.7932L21.0249 34.6807Z" fill="#EC4046"/>
<path d="M11.7424 19.3692H337.292L340.512 14.0419H8.5108L11.7424 19.3692Z" fill="#EC4046"/>
<path d="M333.441 456.629H15.1766L12.8235 461.951H335.852L333.441 456.629Z" fill="#EC4046"/>
<path d="M326.512 441.318H21.934L19.5847 446.64H328.922L326.512 441.318Z" fill="#EC4046"/>
<path d="M315.197 416.316L314.361 414.468V399.436H34.6429V412.538L32.9736 416.316H315.197Z" fill="#EC4046"/>
<path d="M34.6467 361.596H62.6086L48.6276 337.854L34.6467 361.596Z" fill="#36D6B6"/>
<path d="M62.6086 361.596H90.5705L76.5895 337.854L62.6086 361.596Z" fill="#36D6B6"/>
<path d="M90.5705 361.596H118.532L104.551 337.854L90.5705 361.596Z" fill="#36D6B6"/>
<path d="M118.532 361.596H146.494L132.513 337.854L118.532 361.596Z" fill="#36D6B6"/>
<path d="M146.494 361.596H174.456L160.475 337.854L146.494 361.596Z" fill="#36D6B6"/>
<path d="M174.456 361.596H34.6467V399.258H174.456V361.596Z" fill="#36D6B6"/>
<path d="M174.456 361.591H202.437L188.445 337.834L174.456 361.591Z" fill="#36D6B6"/>
<path d="M202.437 361.591H230.418L216.426 337.834L202.437 361.591Z" fill="#36D6B6"/>
<path d="M230.418 361.591H258.399L244.407 337.834L230.418 361.591Z" fill="#36D6B6"/>
<path d="M258.399 361.591H286.38L272.391 337.834L258.399 361.591Z" fill="#36D6B6"/>
<path d="M286.38 361.591H314.361L300.372 337.834L286.38 361.591Z" fill="#36D6B6"/>
<path d="M314.361 361.591H174.456V399.283H314.361V361.591Z" fill="#36D6B6"/>
<path d="M314.361 94.962H286.399L300.38 118.704L314.361 94.962Z" fill="#36D6B6"/>
<path d="M286.399 94.962H258.437L272.418 118.704L286.399 94.962Z" fill="#36D6B6"/>
<path d="M258.437 94.962H230.475L244.456 118.704L258.437 94.962Z" fill="#36D6B6"/>
<path d="M230.475 94.962H202.513L216.494 118.704L230.475 94.962Z" fill="#36D6B6"/>
<path d="M202.514 94.962H174.556L188.536 118.704L202.514 94.962Z" fill="#36D6B6"/>
<path d="M174.55 94.9589L314.359 94.9589V57.2971L174.55 57.2971V94.9589Z" fill="#36D6B6"/>
<path d="M174.555 94.967H146.571L160.563 118.724L174.555 94.967Z" fill="#36D6B6"/>
<path d="M146.571 94.967H118.59L132.582 118.724L146.571 94.967Z" fill="#36D6B6"/>
<path d="M118.59 94.967H90.6087L104.601 118.724L118.59 94.967Z" fill="#36D6B6"/>
<path d="M90.6087 94.967H62.6277L76.6201 118.724L90.6087 94.967Z" fill="#36D6B6"/>
<path d="M62.6277 94.967H34.6467L48.6353 118.724L62.6277 94.967Z" fill="#36D6B6"/>
<path d="M34.6487 94.9675L174.554 94.9675V57.2803L34.6487 57.2803V94.9675Z" fill="#36D6B6"/>
<path d="M277.17 230.074C277.17 281.209 231.018 322.665 174.082 322.665C117.15 322.665 70.9933 281.209 70.9933 230.074C70.9933 178.939 117.15 140.536 174.086 140.536C231.018 140.536 277.17 178.939 277.17 230.074Z" fill="white"/>
<path d="M196.004 169.28C187.707 169.28 180.087 172.413 174.063 177.644C169.311 181.773 163.352 181.773 158.6 177.644C152.572 172.408 144.951 169.28 136.654 169.28C117.115 169.28 101.274 186.608 101.274 207.988C101.274 229.363 117.115 246.696 136.654 246.696C144.951 246.696 152.572 243.568 158.6 238.332C163.352 234.203 169.311 234.203 174.063 238.332C180.09 243.568 187.711 246.696 196.004 246.696C215.543 246.696 231.384 229.368 231.384 207.988C231.388 186.608 215.543 169.28 196.004 169.28Z" fill="#FFA32B"/>
<mask id="mask0_1_562" style="mask-type:luminance" maskUnits="userSpaceOnUse" x="101" y="169" width="131" height="78">
<path d="M196.004 169.28C187.707 169.28 180.087 172.413 174.063 177.644C169.311 181.773 163.352 181.773 158.6 177.644C152.572 172.408 144.951 169.28 136.654 169.28C117.115 169.28 101.274 186.608 101.274 207.988C101.274 229.363 117.115 246.696 136.654 246.696C144.951 246.696 152.572 243.568 158.6 238.332C163.352 234.203 169.311 234.203 174.063 238.332C180.09 243.568 187.711 246.696 196.004 246.696C215.543 246.696 231.384 229.368 231.384 207.988C231.388 186.608 215.543 169.28 196.004 169.28Z" fill="white"/>
</mask>
<g mask="url(#mask0_1_562)">
<path d="M232.282 216.576H230.494C230.494 195.739 214.913 178.787 195.756 178.787C187.822 178.787 180.346 181.636 174.15 187.019C169.051 191.448 162.706 191.453 157.599 187.019C151.399 181.636 143.927 178.787 135.989 178.787C116.836 178.787 101.251 195.739 101.251 216.576H99.4633C99.4633 194.429 115.851 176.405 135.989 176.405C144.279 176.405 152.087 179.386 158.577 185.023C163.084 188.939 168.676 188.934 173.173 185.023C179.666 179.386 187.474 176.405 195.756 176.405C215.895 176.41 232.282 194.429 232.282 216.576Z" fill="#C77000"/>
<path d="M232.282 230.897H230.494C230.494 210.06 214.913 193.108 195.756 193.108C187.818 193.108 180.346 195.952 174.15 201.34C169.051 205.769 162.706 205.774 157.599 201.34C151.399 195.952 143.927 193.108 135.989 193.108C116.836 193.108 101.251 210.06 101.251 230.897H99.4633C99.4633 208.75 115.851 190.726 135.989 190.726C144.279 190.726 152.09 193.707 158.577 199.345C163.084 203.26 168.676 203.255 173.173 199.345C179.663 193.707 187.474 190.726 195.756 190.726C215.895 190.726 232.282 208.75 232.282 230.897Z" fill="#C77000"/>
<path d="M196.004 239.007C187.776 239.007 180.018 236.046 173.574 230.45C169.112 226.57 163.562 226.565 159.092 230.45C152.644 236.052 144.89 239.007 136.658 239.007C116.657 239.007 100.384 221.111 100.384 199.111H102.172C102.172 219.795 117.642 236.63 136.658 236.63C144.538 236.63 151.957 233.802 158.114 228.459C163.183 224.051 169.482 224.056 174.555 228.459C180.713 233.807 188.128 236.63 196.008 236.63C215.027 236.63 230.498 219.8 230.498 199.111H232.286C232.282 221.106 216.005 239.007 196.004 239.007Z" fill="#C77000"/>
<path d="M196.004 228.53C187.776 228.53 180.018 225.57 173.574 219.973C169.112 216.093 163.562 216.088 159.092 219.973C152.644 225.575 144.89 228.53 136.658 228.53C116.657 228.53 100.384 210.634 100.384 188.634H102.172C102.172 209.324 117.642 226.154 136.658 226.154C144.538 226.154 151.957 223.325 158.114 217.982C163.183 213.574 169.482 213.579 174.555 217.982C180.713 223.33 188.128 226.154 196.008 226.154C215.027 226.154 230.498 209.324 230.498 188.634H232.286C232.282 210.629 216.005 228.53 196.004 228.53Z" fill="#C77000"/>
<path d="M117.188 247.123C102.401 196.48 120.977 168.747 121.164 168.473L122.486 170.082C122.302 170.346 104.49 197.074 118.861 246.264L117.188 247.123Z" fill="#C77000"/>
<path d="M128.075 247.123C113.288 196.48 131.86 168.747 132.051 168.473L133.373 170.082C133.189 170.346 115.377 197.074 129.748 246.264L128.075 247.123Z" fill="#C77000"/>
<path d="M141.933 247.123C127.146 196.48 145.723 168.747 145.91 168.473L147.231 170.082C147.052 170.346 129.24 197.074 143.606 246.264L141.933 247.123Z" fill="#C77000"/>
<path d="M156.185 247.123C141.398 196.48 159.975 168.747 160.162 168.473L161.484 170.082C161.304 170.346 143.492 197.074 157.858 246.264L156.185 247.123Z" fill="#C77000"/>
<path d="M211.414 247.498L210.092 245.894C210.276 245.63 228.088 218.902 213.717 169.712L215.387 168.853C230.177 219.491 211.605 247.224 211.414 247.498Z" fill="#C77000"/>
<path d="M200.527 247.498L199.205 245.894C199.389 245.63 217.201 218.902 202.83 169.712L204.5 168.853C219.29 219.491 200.718 247.224 200.527 247.498Z" fill="#C77000"/>
<path d="M186.668 247.498L185.347 245.894C185.53 245.63 203.339 218.902 188.972 169.712L190.641 168.853C205.428 219.491 186.855 247.224 186.668 247.498Z" fill="#C77000"/>
<path d="M172.416 247.498L171.094 245.894C171.278 245.63 189.086 218.902 174.72 169.712L176.389 168.853C191.18 219.491 172.603 247.224 172.416 247.498Z" fill="#C77000"/>
</g>
<g opacity="0.1">
<path d="M209.924 203.925C201.849 206.449 194.969 211.812 190.003 218.744C186.088 224.209 180.289 226.022 174.949 223.447C168.18 220.181 160.223 219.455 152.148 221.974C133.124 227.916 120.687 249.601 124.362 270.412C128.04 291.224 146.444 303.275 165.464 297.333C173.539 294.809 180.419 289.446 185.389 282.514C189.304 277.05 195.103 275.237 200.443 277.812C207.212 281.077 215.169 281.808 223.244 279.284C242.267 273.343 254.705 251.658 251.027 230.846C247.348 210.04 228.943 197.984 209.924 203.925Z" fill="black"/>
</g>
<path d="M156.063 298.506C142.334 298.506 130.962 288.426 128.411 273.988C125.221 255.934 136.41 236.945 153.347 231.654C156.277 230.74 159.245 230.277 162.175 230.277C166.316 230.277 170.285 231.176 173.975 232.954C175.976 233.919 178.058 234.411 180.159 234.411C185.064 234.411 189.659 231.771 193.093 226.982C197.773 220.456 204.003 215.829 211.123 213.605C214.057 212.686 217.041 212.224 219.982 212.224C233.711 212.224 245.083 222.304 247.634 236.742C249.147 245.305 247.478 254.38 242.94 262.302C238.226 270.519 231.037 276.476 222.698 279.081C219.768 279.995 216.8 280.458 213.862 280.458C209.722 280.458 205.756 279.554 202.066 277.776C200.065 276.811 197.987 276.319 195.886 276.319C190.977 276.319 186.382 278.959 182.948 283.748C178.268 290.274 172.034 294.901 164.918 297.125C161.988 298.044 159.004 298.506 156.063 298.506Z" fill="#945300"/>
<path d="M219.982 217.302C231.931 217.302 241.775 225.773 243.918 237.905C246.626 253.232 236.713 269.483 221.823 274.135C219.184 274.958 216.506 275.379 213.866 275.379C210.172 275.379 206.643 274.582 203.377 273.002C200.951 271.834 198.434 271.24 195.89 271.24C189.927 271.24 184.35 274.44 180.19 280.244C176.083 285.973 170.35 290.213 164.051 292.179C161.403 293.006 158.718 293.423 156.067 293.423C144.118 293.423 134.274 284.952 132.131 272.82C129.427 257.493 139.336 241.242 154.23 236.59C156.869 235.767 159.547 235.346 162.186 235.346C165.88 235.346 169.41 236.143 172.676 237.722C175.102 238.89 177.619 239.485 180.163 239.485C186.126 239.485 191.703 236.285 195.863 230.481C199.969 224.752 205.703 220.512 212.002 218.546C214.649 217.718 217.335 217.302 219.982 217.302ZM219.982 207.145C216.804 207.145 213.538 207.633 210.253 208.663C202.177 211.187 195.298 216.55 190.332 223.482C187.593 227.301 183.937 229.338 180.159 229.338C178.532 229.338 176.885 228.962 175.277 228.185C171.259 226.245 166.816 225.204 162.183 225.204C159.012 225.204 155.754 225.692 152.476 226.717C133.453 232.659 121.015 254.344 124.69 275.156C127.731 292.372 140.856 303.595 156.063 303.595C159.241 303.595 162.507 303.107 165.792 302.082C173.872 299.558 180.747 294.195 185.717 287.263C188.456 283.444 192.112 281.407 195.886 281.407C197.513 281.407 199.159 281.783 200.768 282.56C204.79 284.5 209.229 285.541 213.862 285.541C217.033 285.541 220.287 285.054 223.569 284.028C242.592 278.086 255.03 256.401 251.355 235.589C248.314 218.368 235.193 207.145 219.982 207.145Z" fill="#FFA32B"/>
<path d="M183.872 256.579C186.275 269.29 177.661 283.119 164.635 287.471C151.609 291.823 139.103 285.049 136.7 272.342C134.297 259.636 142.911 245.802 155.937 241.45C168.963 237.098 181.469 243.872 183.872 256.579Z" fill="#C77000"/>
<path d="M240.904 237.524C243.306 250.231 234.513 264.125 221.265 268.549C208.018 272.972 195.332 266.258 192.929 253.552C190.526 240.841 199.32 226.951 212.567 222.528C225.815 218.104 238.501 224.818 240.904 237.524Z" fill="#C77000"/>
<path opacity="0.33" d="M289.869 226.27V57.2789L207.672 57.2789L207.672 226.27L289.869 226.27Z" fill="white"/>
<path opacity="0.33" d="M290.376 406.915V254.577L208.178 254.577V406.915H290.376Z" fill="white"/>
</svg>
