<svg width="350" height="491" viewBox="0 0 350 491" fill="none" xmlns="http://www.w3.org/2000/svg">
<path d="M315.262 45.5439L350 0H174.998H0L34.7383 47.6218V425.617L0 491H174.998H350L315.262 427.225V45.5439Z" fill="#F5E020"/>
<path d="M34.7422 345.507V425.617L6.10352e-05 491H174.998H350L315.262 427.225V345.507H34.7422Z" fill="#C73661"/>
<path d="M21.0851 28.8998H327.957L331.34 24.4647H17.8442L21.0851 28.8998Z" fill="#C73661"/>
<path d="M11.776 16.1406H337.688L341.074 11.7055H8.53519L11.776 16.1406Z" fill="#C73661"/>
<path d="M334.397 462.358H15.22L12.8602 466.793H336.814L334.397 462.358Z" fill="#F5E020"/>
<path d="M327.448 449.595H21.9968L19.6408 454.034H329.865L327.448 449.595Z" fill="#F5E020"/>
<path d="M316.101 428.765L315.262 427.225V414.698H34.7422V425.617L33.0681 428.765H316.101Z" fill="#80223F"/>
<path d="M279.111 213.452C293.452 150.1 258.589 85.9002 201.24 70.0574C143.892 54.2145 85.7764 92.7282 71.4349 156.08C57.0935 219.432 91.9573 283.632 149.305 299.474C206.654 315.317 264.769 276.804 279.111 213.452Z" fill="white"/>
<path d="M223.21 197.542L114.214 244.385C109.138 246.569 103.851 241.778 104.797 235.849L124.35 113.2C125.258 107.491 131.326 104.884 135.486 108.413L224.93 184.22C229.251 187.884 228.286 195.358 223.21 197.542Z" fill="#FFA32B"/>
<path opacity="0.1" d="M239.372 253.505L124.109 231.621C118.738 230.601 116.443 223.488 120.017 218.947L193.972 124.956C197.412 120.584 203.829 121.799 205.748 127.19L247.057 243.065C249.057 248.668 244.743 254.525 239.372 253.505Z" fill="black"/>
<path d="M245.708 252.188L130.445 230.305C125.078 229.285 122.779 222.176 126.354 217.631L200.309 123.64C203.749 119.268 210.165 120.483 212.085 125.874L253.393 241.748C255.389 247.351 251.075 253.208 245.708 252.188Z" fill="#FFA32B"/>
<path d="M174.343 202.256C176.354 205.379 175.691 209.709 172.864 211.93C170.037 214.152 166.118 213.42 164.107 210.297C162.096 207.174 162.758 202.84 165.586 200.623C168.413 198.401 172.336 199.133 174.343 202.256Z" fill="#C77000"/>
<path d="M197.443 156.018C199.454 159.141 198.792 163.471 195.964 165.692C193.137 167.914 189.218 167.182 187.207 164.059C185.196 160.936 185.859 156.606 188.686 154.385C191.513 152.163 195.432 152.895 197.443 156.018Z" fill="#C77000"/>
<path d="M183.702 199.163C184.706 200.724 184.376 202.891 182.962 204C181.549 205.108 179.587 204.745 178.584 203.183C177.58 201.621 177.91 199.455 179.323 198.346C180.737 197.233 182.698 197.601 183.702 199.163Z" fill="#C77000"/>
<path d="M130.545 177.368C130.882 180.094 129.158 182.603 126.691 182.975C124.224 183.348 121.952 181.439 121.615 178.718C121.278 175.993 123.002 173.483 125.469 173.111C127.936 172.738 130.208 174.647 130.545 177.368Z" fill="#C77000"/>
<path d="M228.81 216.738C229.814 218.299 229.485 220.466 228.071 221.575C226.657 222.684 224.696 222.32 223.692 220.758C222.689 219.196 223.018 217.03 224.432 215.921C225.845 214.812 227.807 215.176 228.81 216.738Z" fill="#C77000"/>
<path d="M212.809 191.871C213.812 193.433 213.483 195.599 212.069 196.708C210.656 197.817 208.694 197.453 207.691 195.891C206.687 194.33 207.016 192.163 208.43 191.054C209.844 189.941 211.805 190.309 212.809 191.871Z" fill="#C77000"/>
<path d="M199.278 215.113C200.282 216.674 199.952 218.841 198.539 219.95C197.125 221.059 195.164 220.695 194.16 219.133C193.156 217.571 193.486 215.405 194.899 214.296C196.313 213.183 198.274 213.551 199.278 215.113Z" fill="#C77000"/>
<path d="M144.956 145.65C145.96 147.212 145.631 149.378 144.217 150.487C142.803 151.596 140.842 151.232 139.838 149.67C138.835 148.109 139.164 145.942 140.578 144.833C141.991 143.72 143.953 144.088 144.956 145.65Z" fill="#C77000"/>
<path d="M216.053 165.248C217.057 166.81 216.728 168.976 215.314 170.085C213.901 171.194 211.939 170.83 210.935 169.268C209.932 167.707 210.261 165.54 211.675 164.431C213.085 163.323 215.046 163.687 216.053 165.248Z" fill="#C77000"/>
<path d="M151.821 164.575C152.323 165.354 152.158 166.437 151.45 166.992C150.745 167.546 149.764 167.364 149.258 166.585C148.757 165.807 148.921 164.723 149.63 164.165C150.339 163.61 151.319 163.792 151.821 164.575Z" fill="#C77000"/>
<path d="M119.508 227.855C120.01 228.634 119.845 229.717 119.136 230.271C118.428 230.826 117.451 230.644 116.945 229.865C116.443 229.082 116.608 228.003 117.317 227.444C118.025 226.89 119.006 227.072 119.508 227.855Z" fill="#C77000"/>
<path d="M144.692 127.288C145.194 128.066 145.029 129.15 144.32 129.708C143.616 130.263 142.635 130.081 142.133 129.298C141.631 128.519 141.796 127.436 142.505 126.881C143.209 126.323 144.186 126.505 144.692 127.288Z" fill="#C77000"/>
<path d="M213.774 370.589H140.21C138.85 370.589 137.747 369.37 137.747 367.868C137.747 366.366 138.85 365.147 140.21 365.147H213.774C215.134 365.147 216.237 366.366 216.237 367.868C216.237 369.37 215.138 370.589 213.774 370.589Z" fill="#F5E020"/>
<path d="M197.949 386.556H156.039C154.679 386.556 153.576 385.337 153.576 383.835C153.576 382.333 154.679 381.114 156.039 381.114H197.949C199.309 381.114 200.412 382.333 200.412 383.835C200.412 385.337 199.309 386.556 197.949 386.556Z" fill="#F5E020"/>
<path d="M134.82 90.4446C132.809 85.0362 128.085 79.814 123.185 77.5922C122.243 77.1648 122.243 75.781 123.185 75.3536C128.081 73.1318 132.809 67.9139 134.82 62.5012C135.207 61.4602 136.459 61.4602 136.846 62.5012C138.858 67.9096 143.585 73.1318 148.481 75.3536C149.423 75.781 149.423 77.1648 148.481 77.5922C143.585 79.814 138.858 85.032 136.846 90.4446C136.459 91.4857 135.207 91.4857 134.82 90.4446Z" fill="#C73661"/>
<path d="M173.021 100.737C172.144 98.3752 170.083 96.0984 167.945 95.1293C167.536 94.9431 167.536 94.3379 167.945 94.1517C170.083 93.1826 172.144 90.9059 173.021 88.5444C173.19 88.0916 173.738 88.0916 173.906 88.5444C174.784 90.9059 176.844 93.1826 178.982 94.1517C179.392 94.3379 179.392 94.9431 178.982 95.1293C176.844 96.0984 174.784 98.3752 173.906 100.737C173.738 101.194 173.19 101.194 173.021 100.737Z" fill="#C73661"/>
<path d="M251.183 161.579C249.918 158.181 246.949 154.897 243.873 153.504C243.28 153.234 243.28 152.366 243.873 152.095C246.949 150.699 249.922 147.419 251.183 144.021C251.428 143.365 252.213 143.365 252.458 144.021C253.723 147.419 256.691 150.703 259.768 152.095C260.361 152.366 260.361 153.234 259.768 153.504C256.691 154.901 253.719 158.181 252.458 161.579C252.213 162.235 251.424 162.235 251.183 161.579Z" fill="#C73661"/>
<path d="M89.7114 194.351C88.3323 190.644 85.0951 187.064 81.7393 185.544C81.0919 185.252 81.0919 184.304 81.7393 184.008C85.0951 182.485 88.3361 178.909 89.7114 175.201C89.9758 174.486 90.8338 174.486 91.1019 175.201C92.4811 178.909 95.7182 182.489 99.0741 184.008C99.7215 184.3 99.7215 185.248 99.0741 185.544C95.7182 187.068 92.4772 190.644 91.1019 194.351C90.8338 195.066 89.9758 195.066 89.7114 194.351Z" fill="#C73661"/>
<path d="M160.035 290.771C141.761 290.771 126.944 287.292 126.944 282.997V315.413C126.944 318.774 129.407 321.495 132.449 321.495H187.621C190.659 321.495 193.126 318.774 193.126 315.413V282.997C193.126 287.288 178.312 290.771 160.035 290.771Z" fill="#80223F"/>
<path d="M193.126 282.997C193.126 287.288 178.312 290.771 160.035 290.771C141.761 290.771 126.944 287.292 126.944 282.997C126.944 278.706 141.758 275.223 160.035 275.223C178.312 275.223 193.126 278.701 193.126 282.997Z" fill="#C73661"/>
<path d="M160.035 290.771C172.221 290.771 182.84 289.218 188.582 286.916C188.521 283.429 185.989 280.589 182.805 280.521C181.997 280.504 181.219 280.669 180.511 280.983C179.335 279.104 177.4 277.847 175.178 277.8C173.366 277.762 171.715 278.536 170.497 279.81C168.796 276.801 165.804 274.766 162.356 274.698C160.483 274.66 158.744 275.236 157.234 276.209C156.51 275.93 155.748 275.735 154.94 275.718C153.97 275.697 153.051 275.9 152.197 276.255C150.626 275.193 148.81 274.525 146.837 274.486C142.497 274.398 138.731 277.191 136.984 281.258C136.877 281.249 136.77 281.215 136.659 281.215C133.644 281.156 131.123 283.352 130.261 286.374C135.613 288.972 146.918 290.771 160.035 290.771Z" fill="#F5E020"/>
<path d="M194.382 310.03C181.453 310.03 170.972 307.567 170.972 304.533V327.466C170.972 329.84 172.715 331.77 174.868 331.77H213.901C216.05 331.77 217.797 329.844 217.797 327.466V304.533C217.793 307.567 207.312 310.03 194.382 310.03Z" fill="#80223F"/>
<path d="M217.793 304.529C217.793 307.568 207.312 310.03 194.382 310.03C181.453 310.03 170.972 307.568 170.972 304.529C170.972 301.491 181.453 299.028 194.382 299.028C207.312 299.028 217.793 301.491 217.793 304.529Z" fill="#C73661"/>
<path d="M194.382 310.03C204.124 310.03 212.468 308.634 215.996 306.645C216.008 306.501 216.042 306.361 216.042 306.213C216.042 303.556 214.092 301.402 211.686 301.402C211.089 301.402 210.518 301.537 209.997 301.778C209.108 300.411 207.664 299.51 206.02 299.51C204.684 299.51 203.473 300.107 202.592 301.063C201.297 298.867 199.067 297.411 196.52 297.411C195.137 297.411 193.861 297.859 192.762 298.604C192.222 298.41 191.659 298.274 191.061 298.274C190.348 298.274 189.67 298.435 189.042 298.71C187.87 297.948 186.521 297.483 185.062 297.483C181.859 297.483 179.112 299.599 177.875 302.625C177.795 302.62 177.718 302.599 177.634 302.599C175.335 302.599 173.427 304.355 172.895 306.713C176.488 308.664 184.752 310.03 194.382 310.03Z" fill="#EC4046"/>
<path opacity="0.33" d="M290.7 270.393L290.7 52.9531L208.267 52.9531L208.267 270.393H290.7Z" fill="white"/>
<path opacity="0.33" d="M291.207 420.931V293.986H208.774V420.931H291.207Z" fill="white"/>
<g opacity="0.15">
<path d="M203.055 305.976L202.09 304.905C202.044 304.855 202.067 304.77 202.128 304.753L203.412 304.41C203.473 304.393 203.527 304.453 203.511 304.52L203.193 305.934C203.178 306.002 203.101 306.027 203.055 305.976Z" fill="black"/>
<path d="M187.012 304.381L186.046 303.31C186 303.259 186.023 303.175 186.085 303.158L187.368 302.815C187.429 302.798 187.483 302.857 187.468 302.925L187.15 304.338C187.134 304.406 187.058 304.432 187.012 304.381Z" fill="black"/>
<path d="M208.583 304.825L209.457 303.661C209.499 303.606 209.576 303.623 209.598 303.691L210.031 305.066C210.051 305.13 210.005 305.193 209.943 305.185L208.637 304.973C208.572 304.965 208.545 304.88 208.583 304.825Z" fill="black"/>
<path d="M194.67 301.732L195.566 300.589C195.608 300.534 195.685 300.555 195.704 300.619L196.11 302.007C196.129 302.07 196.079 302.134 196.018 302.125L194.715 301.884C194.654 301.867 194.627 301.787 194.67 301.732Z" fill="black"/>
<path d="M179.25 305.595L180.147 304.453C180.189 304.398 180.265 304.419 180.285 304.482L180.691 305.87C180.71 305.934 180.66 305.997 180.599 305.989L179.3 305.748C179.235 305.731 179.208 305.65 179.25 305.595Z" fill="black"/>
<path d="M190.758 307.034L191.429 306.179C191.459 306.137 191.517 306.154 191.532 306.2L191.835 307.237C191.85 307.284 191.812 307.335 191.766 307.326L190.793 307.144C190.747 307.136 190.728 307.072 190.758 307.034Z" fill="black"/>
</g>
</svg>
