<svg width="136" height="76" viewBox="0 0 136 76" fill="none" xmlns="http://www.w3.org/2000/svg">
<path d="M125.091 75.367H135.919C135.919 75.367 135.921 75.365 135.922 75.363C133.971 74.794 132.535 73.017 132.528 70.882C132.521 68.708 133.997 66.891 135.998 66.344L135.997 65.984C133.991 65.45 132.504 63.644 132.496 61.47C132.489 59.296 133.964 57.479 135.966 56.932L135.964 56.572C133.959 56.039 132.471 54.232 132.463 52.058C132.456 49.884 133.932 48.067 135.933 47.52L135.932 47.16C133.927 46.627 132.439 44.82 132.431 42.646C132.424 40.472 133.9 38.655 135.901 38.108L135.9 37.748C133.894 37.214 132.407 35.408 132.399 33.234C132.392 31.06 133.867 29.243 135.869 28.696L135.867 28.336C133.862 27.803 132.374 25.996 132.366 23.822C132.359 21.648 133.835 19.831 135.836 19.284L135.835 18.924C133.83 18.391 132.342 16.584 132.334 14.41C132.327 12.236 133.803 10.419 135.804 9.87201L135.802 9.51099C133.797 8.97699 132.31 7.17101 132.302 4.99701C132.296 3.10601 133.411 1.483 135.017 0.729004C135.004 0.713004 134.99 0.699014 134.977 0.683014H125.088V75.367H125.091Z" fill="#EC1C24"/>
<path d="M11.608 75.367H0.779984C0.779984 75.367 0.777978 75.365 0.776978 75.363C2.72798 74.794 4.16399 73.017 4.17099 70.882C4.17799 68.708 2.70199 66.891 0.700989 66.344L0.701981 65.984C2.70798 65.45 4.19499 63.644 4.20299 61.47C4.20999 59.296 2.73499 57.479 0.732986 56.932L0.734985 56.572C2.73999 56.039 4.22798 54.232 4.23598 52.058C4.24298 49.884 2.76699 48.067 0.765991 47.52L0.766983 47.16C2.77198 46.627 4.25999 44.82 4.26799 42.646C4.27499 40.472 2.79899 38.655 0.797989 38.108L0.798981 37.748C2.80498 37.214 4.29199 35.408 4.29999 33.234C4.30699 31.06 2.83199 29.243 0.829987 28.696L0.831985 28.336C2.83699 27.803 4.32498 25.996 4.33298 23.822C4.33998 21.648 2.86399 19.831 0.862991 19.284L0.863983 18.924C2.86898 18.391 4.35699 16.584 4.36499 14.41C4.37199 12.236 2.89599 10.419 0.894989 9.87201L0.896988 9.51099C2.90199 8.97699 4.38899 7.17101 4.39699 4.99701C4.40299 3.10601 3.28799 1.483 1.68199 0.729004C1.69499 0.713004 1.70898 0.699014 1.72198 0.683014H11.611V75.367H11.608Z" fill="#EC1C24"/>
<path d="M128.203 0.683014H9.69897V75.368H128.203V0.683014Z" fill="#F5E020"/>
<path d="M69.45 69.637C91.5011 69.637 109.377 55.4838 109.377 38.025C109.377 20.5662 91.5011 6.41299 69.45 6.41299C47.3989 6.41299 29.523 20.5662 29.523 38.025C29.523 55.4838 47.3989 69.637 69.45 69.637Z" fill="white"/>
<path d="M125.091 0.683014H123.535V75.368H125.091V0.683014Z" fill="#EC1C24"/>
<path d="M14.478 0.683014H12.922V75.368H14.478V0.683014Z" fill="#EC1C24"/>
<path opacity="0.33" d="M77.839 5.80801H19.423V69.967H77.839V5.80801Z" fill="white"/>
<path opacity="0.33" d="M118.281 5.414H96.857V69.573H118.281V5.414Z" fill="white"/>
<path d="M96.027 34.747C96.027 25.699 88.666 18.338 79.618 18.338C76.179 18.338 72.855 19.422 70.077 21.421C67.31 19.417 64.002 18.338 60.509 18.338C51.461 18.338 44.1 25.699 44.1 34.747C44.1 34.885 44.106 35.02 44.117 35.193C44.108 35.422 44.1 35.653 44.1 35.885C44.1 41.623 46.742 46.846 51.044 50.737L49.104 53.949C48.178 55.483 48.67 57.478 50.204 58.405C51.739 59.331 53.735 58.839 54.66 57.305L56.391 54.438C60.296 56.468 64.887 57.641 69.797 57.641C74.888 57.641 79.662 56.393 83.688 54.213L85.428 57.242C86.028 58.287 87.121 58.872 88.245 58.872C88.794 58.872 89.349 58.733 89.859 58.44C91.413 57.548 91.95 55.564 91.057 54.01L88.981 50.395C96.027 44.791 96.027 36.925 96.027 34.747ZM50.592 35.885C50.592 35.697 50.602 35.51 50.61 35.324C50.614 35.24 50.614 35.156 50.612 35.072C50.609 34.97 50.603 34.868 50.592 34.746C50.592 29.277 55.041 24.828 60.51 24.828C62.406 24.828 64.207 25.367 65.769 26.356L54.478 45.052C52.051 42.496 50.592 39.327 50.592 35.885ZM69.8 51.151C66.115 51.151 62.682 50.308 59.755 48.872L70.452 31.159L80.443 48.557C77.361 50.199 73.682 51.151 69.8 51.151ZM85.6 44.505L74.978 26.007C76.401 25.243 77.987 24.828 79.618 24.828C85.087 24.828 89.536 29.277 89.536 34.746C89.537 36.109 88.709 41.023 85.6 44.505Z" fill="#D97A00"/>
<path opacity="0.7" d="M50.678 27.725C50.678 28.513 50.039 29.153 49.25 29.153C48.462 29.153 47.822 28.514 47.822 27.725C47.822 26.937 48.461 26.297 49.25 26.297C50.038 26.297 50.678 26.936 50.678 27.725Z" fill="white"/>
<path opacity="0.7" d="M60.632 21.578C60.632 22.367 59.993 23.006 59.204 23.006C58.416 23.006 57.776 22.367 57.776 21.578C57.776 20.79 58.415 20.15 59.204 20.15C59.993 20.151 60.632 20.79 60.632 21.578Z" fill="white"/>
<path opacity="0.7" d="M49.607 41.301C49.607 42.089 48.968 42.729 48.179 42.729C47.39 42.729 46.751 42.09 46.751 41.301C46.751 40.512 47.39 39.873 48.179 39.873C48.968 39.873 49.607 40.512 49.607 41.301Z" fill="white"/>
<path opacity="0.7" d="M62.06 41.301C62.06 42.089 61.421 42.729 60.632 42.729C59.843 42.729 59.204 42.09 59.204 41.301C59.204 40.512 59.843 39.873 60.632 39.873C61.421 39.873 62.06 40.512 62.06 41.301Z" fill="white"/>
<path opacity="0.7" d="M56.825 50.184C56.825 50.973 56.186 51.612 55.397 51.612C54.608 51.612 53.969 50.973 53.969 50.184C53.969 49.395 54.608 48.756 55.397 48.756C56.186 48.756 56.825 49.395 56.825 50.184Z" fill="white"/>
<path opacity="0.7" d="M65.285 53.82C65.285 54.608 64.646 55.248 63.857 55.248C63.068 55.248 62.429 54.609 62.429 53.82C62.429 53.031 63.068 52.392 63.857 52.392C64.646 52.392 65.285 53.032 65.285 53.82Z" fill="white"/>
<path opacity="0.7" d="M76.798 53.82C76.798 54.608 76.159 55.248 75.37 55.248C74.581 55.248 73.942 54.609 73.942 53.82C73.942 53.031 74.581 52.392 75.37 52.392C76.159 52.392 76.798 53.032 76.798 53.82Z" fill="white"/>
<path opacity="0.7" d="M66.713 33.528C66.713 34.316 66.074 34.956 65.285 34.956C64.497 34.956 63.857 34.317 63.857 33.528C63.857 32.74 64.496 32.1 65.285 32.1C66.074 32.1 66.713 32.74 66.713 33.528Z" fill="white"/>
<path opacity="0.7" d="M89.066 27.725C89.066 28.513 89.705 29.153 90.494 29.153C91.282 29.153 91.922 28.514 91.922 27.725C91.922 26.937 91.283 26.297 90.494 26.297C89.705 26.297 89.066 26.936 89.066 27.725Z" fill="white"/>
<path opacity="0.7" d="M80.024 21.578C80.024 22.367 80.663 23.006 81.452 23.006C82.241 23.006 82.88 22.367 82.88 21.578C82.88 20.79 82.241 20.15 81.452 20.15C80.663 20.151 80.024 20.79 80.024 21.578Z" fill="white"/>
<path opacity="0.7" d="M89.78 41.34C89.78 42.129 90.419 42.768 91.208 42.768C91.997 42.768 92.636 42.129 92.636 41.34C92.636 40.552 91.997 39.912 91.208 39.912C90.419 39.913 89.78 40.552 89.78 41.34Z" fill="white"/>
<path opacity="0.7" d="M78.596 41.301C78.596 42.089 79.235 42.729 80.024 42.729C80.813 42.729 81.452 42.09 81.452 41.301C81.452 40.512 80.813 39.873 80.024 39.873C79.235 39.873 78.596 40.512 78.596 41.301Z" fill="white"/>
<path opacity="0.7" d="M83.831 50.184C83.831 50.973 84.47 51.612 85.259 51.612C86.048 51.612 86.687 50.973 86.687 50.184C86.687 49.395 86.048 48.756 85.259 48.756C84.47 48.756 83.831 49.395 83.831 50.184Z" fill="white"/>
<path opacity="0.7" d="M73.943 33.528C73.943 34.316 74.582 34.956 75.371 34.956C76.159 34.956 76.799 34.317 76.799 33.528C76.799 32.74 76.16 32.1 75.371 32.1C74.582 32.1 73.943 32.74 73.943 33.528Z" fill="white"/>
<path opacity="0.7" d="M71.68 25.755C71.68 26.543 71.041 27.183 70.252 27.183C69.463 27.183 68.824 26.544 68.824 25.755C68.824 24.966 69.463 24.327 70.252 24.327C71.04 24.328 71.68 24.967 71.68 25.755Z" fill="white"/>
</svg>
