<svg width="251" height="399" viewBox="0 0 251 399" fill="none" xmlns="http://www.w3.org/2000/svg">
<path d="M216.591 398.62H35.2342C19.9217 398.62 7.50769 386.029 7.50769 370.499V39.7785C7.50769 26.8877 17.8084 16.4404 30.5183 16.4404H220.564C233.273 16.4404 243.574 26.8877 243.574 39.7785V371.249C243.578 386.368 231.494 398.62 216.591 398.62Z" fill="#DCF1FD"/>
<path d="M243.578 49.4677H7.51141V371.565H243.578V49.4677Z" fill="#C73661"/>
<path d="M128.168 317.589C187.796 317.589 236.134 263.62 236.134 197.046C236.134 130.472 187.796 76.5038 128.168 76.5038C68.5404 76.5038 20.2024 130.472 20.2024 197.046C20.2024 263.62 68.5404 317.589 128.168 317.589Z" fill="white"/>
<path d="M243.578 146.841H7.51141V253.527H243.578V146.841Z" fill="white"/>
<path opacity="0.15" d="M8.46377 30.5894L7.65942 376.767C8.96835 389.054 19.2235 398.62 31.683 398.62H54.2536L55.1452 16.4404H27.5742C18.6241 16.4404 11.0513 22.3855 8.46377 30.5894Z" fill="black"/>
<path d="M239.363 28.3345H11.7266C5.64481 28.3345 0.667053 23.286 0.667053 17.1176V11.3687C0.667053 5.20038 5.64481 0.151825 11.7266 0.151825H239.363C245.445 0.151825 250.422 5.20038 250.422 11.3687V17.1176C250.422 23.286 245.445 28.3345 239.363 28.3345Z" fill="#BACDD6"/>
<path d="M232.522 21.108H196.616C193.653 21.108 191.228 18.6492 191.228 15.6439V12.8425C191.228 9.83719 193.653 7.37833 196.616 7.37833H232.522C235.485 7.37833 237.91 9.83719 237.91 12.8425V15.6439C237.91 18.6492 235.485 21.108 232.522 21.108Z" fill="white"/>
<path d="M169.432 351.486H80.6825C78.8538 351.486 77.3741 349.985 77.3741 348.13C77.3741 346.276 78.8538 344.775 80.6825 344.775H169.432C171.26 344.775 172.74 346.276 172.74 348.13C172.74 349.985 171.26 351.486 169.432 351.486Z" fill="white"/>
<path d="M94.6748 256.309C77.7649 256.309 63.0821 244.496 59.2388 227.792L50.3115 188.996C45.9105 169.883 58.1462 154.241 77.4993 154.241H111.85C131.203 154.241 143.439 169.879 139.038 188.996L130.111 227.792C126.264 244.496 111.581 256.309 94.6748 256.309Z" fill="#D93B40"/>
<path d="M65.867 190.905C65.867 190.905 72.3699 184.594 65.6583 179.692C65.6583 179.692 58.7381 185.368 65.867 190.905Z" fill="#6B3519"/>
<path d="M85.1594 191.405C85.1594 191.405 91.6624 185.094 84.9508 180.192C84.9508 180.192 78.0343 185.864 85.1594 191.405Z" fill="#6B3519"/>
<path d="M104.456 191.901C104.456 191.901 110.959 185.591 104.243 180.688C104.243 180.688 97.3268 186.36 104.456 191.901Z" fill="#6B3519"/>
<path d="M123.748 192.398C123.748 192.398 130.251 186.087 123.54 181.185C123.54 181.185 116.619 186.857 123.748 192.398Z" fill="#6B3519"/>
<path d="M75.4013 212.7C75.4013 212.7 81.9042 206.389 75.1926 201.487C75.1926 201.487 68.2762 207.159 75.4013 212.7Z" fill="#6B3519"/>
<path d="M94.6976 213.196C94.6976 213.196 101.2 206.886 94.4889 201.983C94.4889 201.983 87.5686 207.655 94.6976 213.196Z" fill="#6B3519"/>
<path d="M113.99 213.693C113.99 213.693 120.493 207.382 113.781 202.48C113.781 202.48 106.865 208.155 113.99 213.693Z" fill="#6B3519"/>
<path d="M84.9318 235.988C84.9318 235.988 91.4347 229.677 84.7231 224.775C84.7231 224.775 77.8029 230.451 84.9318 235.988Z" fill="#6B3519"/>
<path d="M104.224 236.488C104.224 236.488 110.727 230.178 104.016 225.275C104.016 225.275 97.0954 230.947 104.224 236.488Z" fill="#6B3519"/>
<path d="M91.2299 147.065C91.2299 147.065 73.0452 148.596 75.3367 165.231C75.3367 165.231 93.1913 165.254 91.2299 147.065Z" fill="#36D6B6"/>
<path d="M114.206 163.384C114.206 163.384 112.696 144.941 96.2948 147.265C96.2948 147.265 96.2721 165.373 114.206 163.384Z" fill="#36D6B6"/>
<path d="M94.9442 170.972C94.9442 170.972 106.823 156.919 93.6656 146.722C93.6656 146.722 80.9443 159.428 94.9442 170.972Z" fill="#36D6B6"/>
<path d="M97.2168 139.7H91.0212V150.17H97.2168V139.7Z" fill="#36D6B6"/>
<path d="M112.48 251.23C101.709 238.008 101.341 219.003 111.585 205.362L135.384 173.67C147.112 158.055 166.791 157.662 179.118 172.792L200.998 199.651C213.325 214.782 209.231 234.31 191.9 243.045L156.726 260.773C141.584 268.407 123.251 264.452 112.48 251.23Z" fill="#EC4046"/>
<path d="M143.845 187.053C143.845 187.053 152.784 188.119 152.234 179.746C152.234 179.746 143.515 177.952 143.845 187.053Z" fill="#6B3519"/>
<path d="M155.758 202.453C155.758 202.453 164.697 203.519 164.151 195.145C164.151 195.145 155.428 193.352 155.758 202.453Z" fill="#6B3519"/>
<path d="M167.668 217.856C167.668 217.856 176.606 218.922 176.056 210.549C176.056 210.549 167.338 208.756 167.668 217.856Z" fill="#6B3519"/>
<path d="M179.581 233.26C179.581 233.26 188.519 234.326 187.973 225.952C187.973 225.952 179.251 224.159 179.581 233.26Z" fill="#6B3519"/>
<path d="M133.355 208.386C133.355 208.386 142.293 209.452 141.743 201.079C141.743 201.079 133.025 199.286 133.355 208.386Z" fill="#6B3519"/>
<path d="M145.268 223.79C145.268 223.79 154.206 224.856 153.66 216.483C153.66 216.483 144.938 214.689 145.268 223.79Z" fill="#6B3519"/>
<path d="M157.177 239.193C157.177 239.193 166.116 240.259 165.566 231.886C165.566 231.886 156.847 230.093 157.177 239.193Z" fill="#6B3519"/>
<path d="M121.722 230.67C121.722 230.67 130.661 231.736 130.111 223.363C130.111 223.363 121.388 221.57 121.722 230.67Z" fill="#6B3519"/>
<path d="M133.632 246.074C133.632 246.074 142.57 247.14 142.02 238.766C142.02 238.766 133.301 236.973 133.632 246.074Z" fill="#6B3519"/>
<path d="M196.506 179.011C196.506 179.011 185.074 164.585 172.767 175.821C172.767 175.821 182.737 190.843 196.506 179.011Z" fill="#36D6B6"/>
<path d="M196.028 207.459C196.028 207.459 210.251 195.865 199.173 183.382C199.173 183.382 184.365 193.495 196.028 207.459Z" fill="#36D6B6"/>
<path d="M179.046 195.515C179.046 195.515 197.173 197.635 198.145 180.865C198.145 180.865 180.647 177.287 179.046 195.515Z" fill="#36D6B6"/>
<path d="M205.837 179.915L202.369 174.708L193.814 180.568L197.282 185.776L205.837 179.915Z" fill="#36D6B6"/>
<path opacity="0.2" d="M229.115 70.6895H158.251V324.911H229.115V70.6895Z" fill="white"/>
</svg>
